<?xml version="1.0" encoding="utf-8" standalone="no"?>
<!DOCTYPE svg PUBLIC "-//W3C//DTD SVG 1.1//EN"
  "http://www.w3.org/Graphics/SVG/1.1/DTD/svg11.dtd">
<svg height="345.6pt" version="1.1" viewBox="0 0 460.8 345.6" width="460.8pt" xmlns="http://www.w3.org/2000/svg" xmlns:xlink="http://www.w3.org/1999/xlink">
 <metadata>
  <rdf:RDF xmlns:cc="http://creativecommons.org/ns#" xmlns:dc="http://purl.org/dc/elements/1.1/" xmlns:rdf="http://www.w3.org/1999/02/22-rdf-syntax-ns#">
   <cc:Work>
    <dc:type rdf:resource="http://purl.org/dc/dcmitype/StillImage"/>
    <dc:date>2023-05-25T11:43:37.667884</dc:date>
    <dc:format>image/svg+xml</dc:format>
    <dc:creator>
     <cc:Agent>
      <dc:title>Matplotlib v3.4.3, https://matplotlib.org/</dc:title>
     </cc:Agent>
    </dc:creator>
   </cc:Work>
  </rdf:RDF>
 </metadata>
 <defs>
  <style type="text/css">*{stroke-linecap:butt;stroke-linejoin:round;}</style>
 </defs>
 <g id="figure_1">
  <g id="patch_1">
   <path d="M 0 345.6 
L 460.8 345.6 
L 460.8 0 
L 0 0 
z
" style="fill:#ffffff;"/>
  </g>
  <g id="axes_1">
   <g id="patch_2">
    <path d="M 57.6 307.584 
L 414.72 307.584 
L 414.72 41.472 
L 57.6 41.472 
z
" style="fill:#ffffff;"/>
   </g>
   <g id="matplotlib.axis_1">
    <g id="xtick_1">
     <g id="line2d_1">
      <defs>
       <path d="M 0 0 
L 0 3.5 
" id="m6a17e7854a" style="stroke:#000000;stroke-width:0.8;"/>
      </defs>
      <g>
       <use style="stroke:#000000;stroke-width:0.8;" x="72.746926" xlink:href="#m6a17e7854a" y="307.584"/>
      </g>
     </g>
     <g id="text_1">
      <!-- 0 -->
      <g transform="translate(69.565676 322.182437)scale(0.1 -0.1)">
       <defs>
        <path d="M 2034 4250 
Q 1547 4250 1301 3770 
Q 1056 3291 1056 2328 
Q 1056 1369 1301 889 
Q 1547 409 2034 409 
Q 2525 409 2770 889 
Q 3016 1369 3016 2328 
Q 3016 3291 2770 3770 
Q 2525 4250 2034 4250 
z
M 2034 4750 
Q 2819 4750 3233 4129 
Q 3647 3509 3647 2328 
Q 3647 1150 3233 529 
Q 2819 -91 2034 -91 
Q 1250 -91 836 529 
Q 422 1150 422 2328 
Q 422 3509 836 4129 
Q 1250 4750 2034 4750 
z
" id="DejaVuSans-30" transform="scale(0.015625)"/>
       </defs>
       <use xlink:href="#DejaVuSans-30"/>
      </g>
     </g>
    </g>
    <g id="xtick_2">
     <g id="line2d_2">
      <g>
       <use style="stroke:#000000;stroke-width:0.8;" x="127.036984" xlink:href="#m6a17e7854a" y="307.584"/>
      </g>
     </g>
     <g id="text_2">
      <!-- 50 -->
      <g transform="translate(120.674484 322.182437)scale(0.1 -0.1)">
       <defs>
        <path d="M 691 4666 
L 3169 4666 
L 3169 4134 
L 1269 4134 
L 1269 2991 
Q 1406 3038 1543 3061 
Q 1681 3084 1819 3084 
Q 2600 3084 3056 2656 
Q 3513 2228 3513 1497 
Q 3513 744 3044 326 
Q 2575 -91 1722 -91 
Q 1428 -91 1123 -41 
Q 819 9 494 109 
L 494 744 
Q 775 591 1075 516 
Q 1375 441 1709 441 
Q 2250 441 2565 725 
Q 2881 1009 2881 1497 
Q 2881 1984 2565 2268 
Q 2250 2553 1709 2553 
Q 1456 2553 1204 2497 
Q 953 2441 691 2322 
L 691 4666 
z
" id="DejaVuSans-35" transform="scale(0.015625)"/>
       </defs>
       <use xlink:href="#DejaVuSans-35"/>
       <use x="63.623047" xlink:href="#DejaVuSans-30"/>
      </g>
     </g>
    </g>
    <g id="xtick_3">
     <g id="line2d_3">
      <g>
       <use style="stroke:#000000;stroke-width:0.8;" x="181.327042" xlink:href="#m6a17e7854a" y="307.584"/>
      </g>
     </g>
     <g id="text_3">
      <!-- 100 -->
      <g transform="translate(171.783292 322.182437)scale(0.1 -0.1)">
       <defs>
        <path d="M 794 531 
L 1825 531 
L 1825 4091 
L 703 3866 
L 703 4441 
L 1819 4666 
L 2450 4666 
L 2450 531 
L 3481 531 
L 3481 0 
L 794 0 
L 794 531 
z
" id="DejaVuSans-31" transform="scale(0.015625)"/>
       </defs>
       <use xlink:href="#DejaVuSans-31"/>
       <use x="63.623047" xlink:href="#DejaVuSans-30"/>
       <use x="127.246094" xlink:href="#DejaVuSans-30"/>
      </g>
     </g>
    </g>
    <g id="xtick_4">
     <g id="line2d_4">
      <g>
       <use style="stroke:#000000;stroke-width:0.8;" x="235.617099" xlink:href="#m6a17e7854a" y="307.584"/>
      </g>
     </g>
     <g id="text_4">
      <!-- 150 -->
      <g transform="translate(226.073349 322.182437)scale(0.1 -0.1)">
       <use xlink:href="#DejaVuSans-31"/>
       <use x="63.623047" xlink:href="#DejaVuSans-35"/>
       <use x="127.246094" xlink:href="#DejaVuSans-30"/>
      </g>
     </g>
    </g>
    <g id="xtick_5">
     <g id="line2d_5">
      <g>
       <use style="stroke:#000000;stroke-width:0.8;" x="289.907157" xlink:href="#m6a17e7854a" y="307.584"/>
      </g>
     </g>
     <g id="text_5">
      <!-- 200 -->
      <g transform="translate(280.363407 322.182437)scale(0.1 -0.1)">
       <defs>
        <path d="M 1228 531 
L 3431 531 
L 3431 0 
L 469 0 
L 469 531 
Q 828 903 1448 1529 
Q 2069 2156 2228 2338 
Q 2531 2678 2651 2914 
Q 2772 3150 2772 3378 
Q 2772 3750 2511 3984 
Q 2250 4219 1831 4219 
Q 1534 4219 1204 4116 
Q 875 4013 500 3803 
L 500 4441 
Q 881 4594 1212 4672 
Q 1544 4750 1819 4750 
Q 2544 4750 2975 4387 
Q 3406 4025 3406 3419 
Q 3406 3131 3298 2873 
Q 3191 2616 2906 2266 
Q 2828 2175 2409 1742 
Q 1991 1309 1228 531 
z
" id="DejaVuSans-32" transform="scale(0.015625)"/>
       </defs>
       <use xlink:href="#DejaVuSans-32"/>
       <use x="63.623047" xlink:href="#DejaVuSans-30"/>
       <use x="127.246094" xlink:href="#DejaVuSans-30"/>
      </g>
     </g>
    </g>
    <g id="xtick_6">
     <g id="line2d_6">
      <g>
       <use style="stroke:#000000;stroke-width:0.8;" x="344.197215" xlink:href="#m6a17e7854a" y="307.584"/>
      </g>
     </g>
     <g id="text_6">
      <!-- 250 -->
      <g transform="translate(334.653465 322.182437)scale(0.1 -0.1)">
       <use xlink:href="#DejaVuSans-32"/>
       <use x="63.623047" xlink:href="#DejaVuSans-35"/>
       <use x="127.246094" xlink:href="#DejaVuSans-30"/>
      </g>
     </g>
    </g>
    <g id="xtick_7">
     <g id="line2d_7">
      <g>
       <use style="stroke:#000000;stroke-width:0.8;" x="398.487273" xlink:href="#m6a17e7854a" y="307.584"/>
      </g>
     </g>
     <g id="text_7">
      <!-- 300 -->
      <g transform="translate(388.943523 322.182437)scale(0.1 -0.1)">
       <defs>
        <path d="M 2597 2516 
Q 3050 2419 3304 2112 
Q 3559 1806 3559 1356 
Q 3559 666 3084 287 
Q 2609 -91 1734 -91 
Q 1441 -91 1130 -33 
Q 819 25 488 141 
L 488 750 
Q 750 597 1062 519 
Q 1375 441 1716 441 
Q 2309 441 2620 675 
Q 2931 909 2931 1356 
Q 2931 1769 2642 2001 
Q 2353 2234 1838 2234 
L 1294 2234 
L 1294 2753 
L 1863 2753 
Q 2328 2753 2575 2939 
Q 2822 3125 2822 3475 
Q 2822 3834 2567 4026 
Q 2313 4219 1838 4219 
Q 1578 4219 1281 4162 
Q 984 4106 628 3988 
L 628 4550 
Q 988 4650 1302 4700 
Q 1616 4750 1894 4750 
Q 2613 4750 3031 4423 
Q 3450 4097 3450 3541 
Q 3450 3153 3228 2886 
Q 3006 2619 2597 2516 
z
" id="DejaVuSans-33" transform="scale(0.015625)"/>
       </defs>
       <use xlink:href="#DejaVuSans-33"/>
       <use x="63.623047" xlink:href="#DejaVuSans-30"/>
       <use x="127.246094" xlink:href="#DejaVuSans-30"/>
      </g>
     </g>
    </g>
    <g id="text_8">
     <!-- epoch -->
     <g transform="translate(220.931875 335.860562)scale(0.1 -0.1)">
      <defs>
       <path d="M 3597 1894 
L 3597 1613 
L 953 1613 
Q 991 1019 1311 708 
Q 1631 397 2203 397 
Q 2534 397 2845 478 
Q 3156 559 3463 722 
L 3463 178 
Q 3153 47 2828 -22 
Q 2503 -91 2169 -91 
Q 1331 -91 842 396 
Q 353 884 353 1716 
Q 353 2575 817 3079 
Q 1281 3584 2069 3584 
Q 2775 3584 3186 3129 
Q 3597 2675 3597 1894 
z
M 3022 2063 
Q 3016 2534 2758 2815 
Q 2500 3097 2075 3097 
Q 1594 3097 1305 2825 
Q 1016 2553 972 2059 
L 3022 2063 
z
" id="DejaVuSans-65" transform="scale(0.015625)"/>
       <path d="M 1159 525 
L 1159 -1331 
L 581 -1331 
L 581 3500 
L 1159 3500 
L 1159 2969 
Q 1341 3281 1617 3432 
Q 1894 3584 2278 3584 
Q 2916 3584 3314 3078 
Q 3713 2572 3713 1747 
Q 3713 922 3314 415 
Q 2916 -91 2278 -91 
Q 1894 -91 1617 61 
Q 1341 213 1159 525 
z
M 3116 1747 
Q 3116 2381 2855 2742 
Q 2594 3103 2138 3103 
Q 1681 3103 1420 2742 
Q 1159 2381 1159 1747 
Q 1159 1113 1420 752 
Q 1681 391 2138 391 
Q 2594 391 2855 752 
Q 3116 1113 3116 1747 
z
" id="DejaVuSans-70" transform="scale(0.015625)"/>
       <path d="M 1959 3097 
Q 1497 3097 1228 2736 
Q 959 2375 959 1747 
Q 959 1119 1226 758 
Q 1494 397 1959 397 
Q 2419 397 2687 759 
Q 2956 1122 2956 1747 
Q 2956 2369 2687 2733 
Q 2419 3097 1959 3097 
z
M 1959 3584 
Q 2709 3584 3137 3096 
Q 3566 2609 3566 1747 
Q 3566 888 3137 398 
Q 2709 -91 1959 -91 
Q 1206 -91 779 398 
Q 353 888 353 1747 
Q 353 2609 779 3096 
Q 1206 3584 1959 3584 
z
" id="DejaVuSans-6f" transform="scale(0.015625)"/>
       <path d="M 3122 3366 
L 3122 2828 
Q 2878 2963 2633 3030 
Q 2388 3097 2138 3097 
Q 1578 3097 1268 2742 
Q 959 2388 959 1747 
Q 959 1106 1268 751 
Q 1578 397 2138 397 
Q 2388 397 2633 464 
Q 2878 531 3122 666 
L 3122 134 
Q 2881 22 2623 -34 
Q 2366 -91 2075 -91 
Q 1284 -91 818 406 
Q 353 903 353 1747 
Q 353 2603 823 3093 
Q 1294 3584 2113 3584 
Q 2378 3584 2631 3529 
Q 2884 3475 3122 3366 
z
" id="DejaVuSans-63" transform="scale(0.015625)"/>
       <path d="M 3513 2113 
L 3513 0 
L 2938 0 
L 2938 2094 
Q 2938 2591 2744 2837 
Q 2550 3084 2163 3084 
Q 1697 3084 1428 2787 
Q 1159 2491 1159 1978 
L 1159 0 
L 581 0 
L 581 4863 
L 1159 4863 
L 1159 2956 
Q 1366 3272 1645 3428 
Q 1925 3584 2291 3584 
Q 2894 3584 3203 3211 
Q 3513 2838 3513 2113 
z
" id="DejaVuSans-68" transform="scale(0.015625)"/>
      </defs>
      <use xlink:href="#DejaVuSans-65"/>
      <use x="61.523438" xlink:href="#DejaVuSans-70"/>
      <use x="125" xlink:href="#DejaVuSans-6f"/>
      <use x="186.181641" xlink:href="#DejaVuSans-63"/>
      <use x="241.162109" xlink:href="#DejaVuSans-68"/>
     </g>
    </g>
   </g>
   <g id="matplotlib.axis_2">
    <g id="ytick_1">
     <g id="line2d_8">
      <defs>
       <path d="M 0 0 
L -3.5 0 
" id="mff4a328c52" style="stroke:#000000;stroke-width:0.8;"/>
      </defs>
      <g>
       <use style="stroke:#000000;stroke-width:0.8;" x="57.6" xlink:href="#mff4a328c52" y="278.10319"/>
      </g>
     </g>
     <g id="text_9">
      <!-- 10 -->
      <g transform="translate(37.875 281.902409)scale(0.1 -0.1)">
       <use xlink:href="#DejaVuSans-31"/>
       <use x="63.623047" xlink:href="#DejaVuSans-30"/>
      </g>
     </g>
    </g>
    <g id="ytick_2">
     <g id="line2d_9">
      <g>
       <use style="stroke:#000000;stroke-width:0.8;" x="57.6" xlink:href="#mff4a328c52" y="246.204456"/>
      </g>
     </g>
     <g id="text_10">
      <!-- 20 -->
      <g transform="translate(37.875 250.003674)scale(0.1 -0.1)">
       <use xlink:href="#DejaVuSans-32"/>
       <use x="63.623047" xlink:href="#DejaVuSans-30"/>
      </g>
     </g>
    </g>
    <g id="ytick_3">
     <g id="line2d_10">
      <g>
       <use style="stroke:#000000;stroke-width:0.8;" x="57.6" xlink:href="#mff4a328c52" y="214.305722"/>
      </g>
     </g>
     <g id="text_11">
      <!-- 30 -->
      <g transform="translate(37.875 218.10494)scale(0.1 -0.1)">
       <use xlink:href="#DejaVuSans-33"/>
       <use x="63.623047" xlink:href="#DejaVuSans-30"/>
      </g>
     </g>
    </g>
    <g id="ytick_4">
     <g id="line2d_11">
      <g>
       <use style="stroke:#000000;stroke-width:0.8;" x="57.6" xlink:href="#mff4a328c52" y="182.406987"/>
      </g>
     </g>
     <g id="text_12">
      <!-- 40 -->
      <g transform="translate(37.875 186.206206)scale(0.1 -0.1)">
       <defs>
        <path d="M 2419 4116 
L 825 1625 
L 2419 1625 
L 2419 4116 
z
M 2253 4666 
L 3047 4666 
L 3047 1625 
L 3713 1625 
L 3713 1100 
L 3047 1100 
L 3047 0 
L 2419 0 
L 2419 1100 
L 313 1100 
L 313 1709 
L 2253 4666 
z
" id="DejaVuSans-34" transform="scale(0.015625)"/>
       </defs>
       <use xlink:href="#DejaVuSans-34"/>
       <use x="63.623047" xlink:href="#DejaVuSans-30"/>
      </g>
     </g>
    </g>
    <g id="ytick_5">
     <g id="line2d_12">
      <g>
       <use style="stroke:#000000;stroke-width:0.8;" x="57.6" xlink:href="#mff4a328c52" y="150.508253"/>
      </g>
     </g>
     <g id="text_13">
      <!-- 50 -->
      <g transform="translate(37.875 154.307472)scale(0.1 -0.1)">
       <use xlink:href="#DejaVuSans-35"/>
       <use x="63.623047" xlink:href="#DejaVuSans-30"/>
      </g>
     </g>
    </g>
    <g id="ytick_6">
     <g id="line2d_13">
      <g>
       <use style="stroke:#000000;stroke-width:0.8;" x="57.6" xlink:href="#mff4a328c52" y="118.609519"/>
      </g>
     </g>
     <g id="text_14">
      <!-- 60 -->
      <g transform="translate(37.875 122.408738)scale(0.1 -0.1)">
       <defs>
        <path d="M 2113 2584 
Q 1688 2584 1439 2293 
Q 1191 2003 1191 1497 
Q 1191 994 1439 701 
Q 1688 409 2113 409 
Q 2538 409 2786 701 
Q 3034 994 3034 1497 
Q 3034 2003 2786 2293 
Q 2538 2584 2113 2584 
z
M 3366 4563 
L 3366 3988 
Q 3128 4100 2886 4159 
Q 2644 4219 2406 4219 
Q 1781 4219 1451 3797 
Q 1122 3375 1075 2522 
Q 1259 2794 1537 2939 
Q 1816 3084 2150 3084 
Q 2853 3084 3261 2657 
Q 3669 2231 3669 1497 
Q 3669 778 3244 343 
Q 2819 -91 2113 -91 
Q 1303 -91 875 529 
Q 447 1150 447 2328 
Q 447 3434 972 4092 
Q 1497 4750 2381 4750 
Q 2619 4750 2861 4703 
Q 3103 4656 3366 4563 
z
" id="DejaVuSans-36" transform="scale(0.015625)"/>
       </defs>
       <use xlink:href="#DejaVuSans-36"/>
       <use x="63.623047" xlink:href="#DejaVuSans-30"/>
      </g>
     </g>
    </g>
    <g id="ytick_7">
     <g id="line2d_14">
      <g>
       <use style="stroke:#000000;stroke-width:0.8;" x="57.6" xlink:href="#mff4a328c52" y="86.710785"/>
      </g>
     </g>
     <g id="text_15">
      <!-- 70 -->
      <g transform="translate(37.875 90.510004)scale(0.1 -0.1)">
       <defs>
        <path d="M 525 4666 
L 3525 4666 
L 3525 4397 
L 1831 0 
L 1172 0 
L 2766 4134 
L 525 4134 
L 525 4666 
z
" id="DejaVuSans-37" transform="scale(0.015625)"/>
       </defs>
       <use xlink:href="#DejaVuSans-37"/>
       <use x="63.623047" xlink:href="#DejaVuSans-30"/>
      </g>
     </g>
    </g>
    <g id="ytick_8">
     <g id="line2d_15">
      <g>
       <use style="stroke:#000000;stroke-width:0.8;" x="57.6" xlink:href="#mff4a328c52" y="54.812051"/>
      </g>
     </g>
     <g id="text_16">
      <!-- 80 -->
      <g transform="translate(37.875 58.611269)scale(0.1 -0.1)">
       <defs>
        <path d="M 2034 2216 
Q 1584 2216 1326 1975 
Q 1069 1734 1069 1313 
Q 1069 891 1326 650 
Q 1584 409 2034 409 
Q 2484 409 2743 651 
Q 3003 894 3003 1313 
Q 3003 1734 2745 1975 
Q 2488 2216 2034 2216 
z
M 1403 2484 
Q 997 2584 770 2862 
Q 544 3141 544 3541 
Q 544 4100 942 4425 
Q 1341 4750 2034 4750 
Q 2731 4750 3128 4425 
Q 3525 4100 3525 3541 
Q 3525 3141 3298 2862 
Q 3072 2584 2669 2484 
Q 3125 2378 3379 2068 
Q 3634 1759 3634 1313 
Q 3634 634 3220 271 
Q 2806 -91 2034 -91 
Q 1263 -91 848 271 
Q 434 634 434 1313 
Q 434 1759 690 2068 
Q 947 2378 1403 2484 
z
M 1172 3481 
Q 1172 3119 1398 2916 
Q 1625 2713 2034 2713 
Q 2441 2713 2670 2916 
Q 2900 3119 2900 3481 
Q 2900 3844 2670 4047 
Q 2441 4250 2034 4250 
Q 1625 4250 1398 4047 
Q 1172 3844 1172 3481 
z
" id="DejaVuSans-38" transform="scale(0.015625)"/>
       </defs>
       <use xlink:href="#DejaVuSans-38"/>
       <use x="63.623047" xlink:href="#DejaVuSans-30"/>
      </g>
     </g>
    </g>
    <g id="text_17">
     <!-- acc -->
     <g transform="translate(31.795313 183.0905)rotate(-90)scale(0.1 -0.1)">
      <defs>
       <path d="M 2194 1759 
Q 1497 1759 1228 1600 
Q 959 1441 959 1056 
Q 959 750 1161 570 
Q 1363 391 1709 391 
Q 2188 391 2477 730 
Q 2766 1069 2766 1631 
L 2766 1759 
L 2194 1759 
z
M 3341 1997 
L 3341 0 
L 2766 0 
L 2766 531 
Q 2569 213 2275 61 
Q 1981 -91 1556 -91 
Q 1019 -91 701 211 
Q 384 513 384 1019 
Q 384 1609 779 1909 
Q 1175 2209 1959 2209 
L 2766 2209 
L 2766 2266 
Q 2766 2663 2505 2880 
Q 2244 3097 1772 3097 
Q 1472 3097 1187 3025 
Q 903 2953 641 2809 
L 641 3341 
Q 956 3463 1253 3523 
Q 1550 3584 1831 3584 
Q 2591 3584 2966 3190 
Q 3341 2797 3341 1997 
z
" id="DejaVuSans-61" transform="scale(0.015625)"/>
      </defs>
      <use xlink:href="#DejaVuSans-61"/>
      <use x="61.279297" xlink:href="#DejaVuSans-63"/>
      <use x="116.259766" xlink:href="#DejaVuSans-63"/>
     </g>
    </g>
   </g>
   <g id="line2d_16">
    <path clip-path="url(#pce5ee42f77)" d="M 73.832727 290.671291 
L 76.00433 255.040405 
L 77.090131 225.215089 
L 78.175932 208.181165 
L 79.261733 205.948253 
L 80.347534 178.834329 
L 81.433335 172.933063 
L 82.519137 161.640911 
L 83.604938 174.081418 
L 84.690739 158.387241 
L 85.77654 156.664709 
L 86.862341 155.899139 
L 87.948142 143.458633 
L 89.033943 151.560911 
L 90.119745 151.529013 
L 91.205546 155.962937 
L 92.291347 132.644962 
L 93.377148 134.080405 
L 94.462949 139.407494 
L 95.54875 126.807494 
L 96.634552 145.819139 
L 97.720353 129.391291 
L 98.806154 133.920911 
L 99.891955 136.696101 
L 100.977756 131.305215 
L 102.063557 122.533063 
L 103.149358 136.090025 
L 104.23516 133.825215 
L 105.320961 123.681418 
L 106.406762 130.475848 
L 107.492563 129.072304 
L 108.578364 117.556861 
L 109.664165 129.710278 
L 110.749967 125.786734 
L 111.835768 140.109266 
L 112.921569 127.892051 
L 114.00737 124.38319 
L 115.093171 129.199899 
L 116.178972 112.03838 
L 117.264773 138.673823 
L 118.350575 141.927494 
L 119.436376 118.609519 
L 120.522177 123.330532 
L 121.607978 132.900152 
L 122.693779 119.183696 
L 123.77958 140.109266 
L 124.865382 115.164456 
L 125.951183 127.987747 
L 127.036984 133.920911 
L 128.122785 133.665722 
L 129.208586 125.499646 
L 130.294387 131.241418 
L 131.380189 129.040405 
L 132.46599 145.723443 
L 133.551791 131.305215 
L 134.637592 142.182684 
L 135.723393 137.142684 
L 136.809194 132.708759 
L 137.894995 130.188759 
L 138.980797 133.410532 
L 140.066598 127.445468 
L 141.152399 123.107241 
L 142.2382 128.65762 
L 143.324001 124.478886 
L 144.409802 116.918886 
L 145.495604 124.064203 
L 146.581405 127.094582 
L 147.667206 125.116861 
L 148.753007 121.225215 
L 149.838808 130.890532 
L 150.924609 125.850532 
L 152.01041 112.484962 
L 153.096212 110.156354 
L 154.182013 129.168 
L 155.267814 141.193823 
L 156.353615 131.400911 
L 157.439416 116.217114 
L 158.525217 123.840911 
L 159.611019 134.941671 
L 160.69682 124.223696 
L 161.782621 125.372051 
L 162.868422 130.316354 
L 163.954223 120.587241 
L 165.040024 132.006987 
L 166.125825 128.785215 
L 167.211627 122.245975 
L 168.297428 123.553823 
L 169.383229 118.513823 
L 170.46903 114.909266 
L 171.554831 134.239899 
L 172.640632 122.022684 
L 173.726434 140.396354 
L 174.812235 121.480405 
L 175.898036 119.215595 
L 176.983837 125.308253 
L 178.069638 116.089519 
L 179.155439 118.545722 
L 180.24124 115.228253 
L 181.327042 127.955848 
L 182.412843 117.524962 
L 183.498644 149.806481 
L 184.584445 128.147241 
L 185.670246 118.067241 
L 186.756047 137.015089 
L 187.841849 118.290532 
L 188.92765 116.568 
L 190.013451 119.024203 
L 191.099252 123.713316 
L 192.185053 107.859646 
L 193.270854 113.378127 
L 194.356656 115.834329 
L 195.442457 122.852051 
L 196.528258 120.651038 
L 197.614059 143.299139 
L 198.69986 116.121418 
L 199.785661 107.604456 
L 200.871462 119.885468 
L 201.957264 118.003443 
L 203.043065 125.116861 
L 204.128866 119.470785 
L 205.214667 117.07838 
L 206.300468 125.786734 
L 207.386269 116.663696 
L 208.472071 128.306734 
L 209.557872 130.220658 
L 210.643673 125.467747 
L 211.729474 111.942684 
L 212.815275 131.464709 
L 213.901076 114.654076 
L 214.986877 132.740658 
L 216.072679 113.569519 
L 217.15848 119.885468 
L 218.244281 114.207494 
L 219.330082 131.081924 
L 220.415883 114.494582 
L 221.501684 119.183696 
L 222.587486 119.34319 
L 223.673287 126.169519 
L 224.759088 131.815595 
L 225.844889 133.825215 
L 226.93069 126.488506 
L 228.016491 123.553823 
L 229.102292 121.289013 
L 230.188094 116.153316 
L 231.273895 111.942684 
L 232.359696 114.494582 
L 233.445497 112.516861 
L 234.531298 122.086481 
L 235.617099 61.223696 
L 236.702901 60.521924 
L 237.788702 60.266734 
L 238.874503 59.820152 
L 239.960304 60.521924 
L 241.046105 61.989266 
L 242.131906 60.713316 
L 243.217708 61.159899 
L 245.38931 60.139139 
L 246.475111 60.649519 
L 248.646713 60.87281 
L 249.732514 59.469266 
L 250.818316 60.809013 
L 251.904117 60.809013 
L 252.989918 61.606481 
L 255.16152 59.724456 
L 256.247321 60.649519 
L 257.333123 61.989266 
L 258.418924 61.032304 
L 259.504725 61.446987 
L 260.590526 61.064203 
L 261.676327 62.850532 
L 262.762128 61.478886 
L 263.847929 62.053063 
L 264.933731 64.254076 
L 266.019532 64.254076 
L 267.105333 67.380152 
L 268.191134 67.571544 
L 269.276935 69.644962 
L 270.362736 70.187241 
L 271.448538 69.166481 
L 272.534339 69.45357 
L 273.62014 69.517367 
L 274.705941 70.825215 
L 275.791742 73.600405 
L 276.877543 72.739139 
L 277.963344 75.386734 
L 279.049146 72.292557 
L 280.134947 73.409013 
L 281.220748 73.568506 
L 282.306549 78.895595 
L 283.39235 80.299139 
L 284.478151 78.608506 
L 285.563953 81.638886 
L 286.649754 79.02319 
L 287.735555 79.055089 
L 288.821356 77.460152 
L 289.907157 79.693063 
L 290.992958 76.375595 
L 293.164561 80.362937 
L 294.250362 74.972051 
L 295.336163 79.405975 
L 296.421964 82.213063 
L 297.507765 78.417114 
L 298.593566 79.182684 
L 299.679368 84.924456 
L 300.765169 81.702684 
L 301.85097 82.085468 
L 302.936771 81.734582 
L 304.022572 78.799899 
L 305.108373 79.948253 
L 306.194175 83.457114 
L 308.365777 77.651544 
L 309.451578 82.532051 
L 310.537379 83.744203 
L 311.62318 77.811038 
L 312.708981 82.05357 
L 313.794783 79.342177 
L 314.880584 78.130025 
L 315.966385 77.204962 
L 317.052186 62.276354 
L 318.137987 60.585722 
L 319.223788 59.628759 
L 320.30959 59.564962 
L 322.481192 58.86319 
L 324.652794 58.576101 
L 325.738595 57.619139 
L 326.824396 57.778633 
L 327.910198 57.555342 
L 330.0818 57.84243 
L 331.167601 57.363949 
L 332.253402 57.778633 
L 333.339203 58.065722 
L 334.425005 57.076861 
L 335.510806 57.395848 
L 336.596607 57.363949 
L 337.682408 57.140658 
L 338.768209 57.140658 
L 339.85401 57.300152 
L 340.939811 56.981165 
L 342.025613 57.395848 
L 343.111414 57.427747 
L 344.197215 57.013063 
L 346.368817 57.268253 
L 347.454618 57.076861 
L 348.54042 56.566481 
L 349.626221 57.427747 
L 350.712022 57.523443 
L 351.797823 57.013063 
L 352.883624 57.236354 
L 353.969425 56.438886 
L 355.055227 56.917367 
L 356.141028 57.013063 
L 357.226829 57.651038 
L 358.31263 56.694076 
L 359.398431 56.949266 
L 360.484232 56.502684 
L 362.655835 56.789772 
L 363.741636 56.502684 
L 364.827437 56.981165 
L 365.913238 56.151797 
L 366.999039 56.885468 
L 368.08484 56.757873 
L 369.170642 56.821671 
L 370.256443 56.502684 
L 373.513846 56.662177 
L 374.599647 56.311291 
L 375.685448 56.821671 
L 376.77125 56.438886 
L 380.028653 57.204456 
L 381.114454 56.917367 
L 383.286057 56.981165 
L 384.371858 57.236354 
L 385.457659 56.917367 
L 387.629261 57.013063 
L 388.715062 56.821671 
L 390.886665 57.172557 
L 391.972466 56.534582 
L 393.058267 57.363949 
L 394.144068 56.630278 
L 395.229869 57.236354 
L 396.31567 56.981165 
L 398.487273 56.85357 
L 398.487273 56.85357 
" style="fill:none;stroke:#000000;stroke-linecap:square;stroke-width:1.5;"/>
   </g>
   <g id="line2d_17">
    <path clip-path="url(#pce5ee42f77)" d="M 73.832727 295.488 
L 77.090131 231.020658 
L 78.175932 221.961418 
L 79.261733 205.342177 
L 81.433335 176.856608 
L 82.519137 186.61762 
L 83.604938 161.928 
L 84.690739 168.97762 
L 85.77654 148.371038 
L 86.862341 145.213063 
L 87.948142 155.388759 
L 89.033943 144.064709 
L 90.119745 145.05357 
L 91.205546 148.785722 
L 92.291347 148.690025 
L 93.377148 132.708759 
L 94.462949 146.425215 
L 95.54875 139.981671 
L 96.634552 142.27838 
L 97.720353 139.917873 
L 98.806154 130.443949 
L 99.891955 135.675342 
L 100.977756 126.743696 
L 102.063557 126.679899 
L 103.149358 122.437367 
L 104.23516 121.289013 
L 105.320961 132.708759 
L 106.406762 132.644962 
L 107.492563 134.080405 
L 108.578364 130.124962 
L 109.664165 136.090025 
L 110.749967 120.682937 
L 111.835768 132.294076 
L 112.921569 129.295595 
L 114.00737 126.871291 
L 115.093171 119.917367 
L 116.178972 134.845975 
L 117.264773 126.616101 
L 118.350575 115.004962 
L 119.436376 122.37357 
L 120.522177 131.656101 
L 121.607978 126.616101 
L 122.693779 122.724456 
L 123.77958 120.363949 
L 124.865382 132.517367 
L 125.951183 119.502684 
L 127.036984 131.847494 
L 128.122785 138.48243 
L 129.208586 118.194835 
L 130.294387 123.043443 
L 131.380189 138.003949 
L 132.46599 120.84243 
L 133.551791 129.455089 
L 134.637592 123.936608 
L 135.723393 116.886987 
L 136.809194 119.885468 
L 137.894995 119.088 
L 138.980797 137.015089 
L 140.066598 131.145722 
L 141.152399 146.04243 
L 142.2382 128.211038 
L 143.324001 114.717873 
L 144.409802 108.657114 
L 145.495604 115.898127 
L 146.581405 145.149266 
L 147.667206 111.081418 
L 148.753007 126.552304 
L 149.838808 119.566481 
L 150.924609 120.204456 
L 152.01041 122.852051 
L 153.096212 129.486987 
L 154.182013 116.791291 
L 155.267814 135.292557 
L 156.353615 120.236354 
L 157.439416 109.550278 
L 158.525217 127.254076 
L 159.611019 128.179139 
L 160.69682 128.91281 
L 161.782621 121.416608 
L 162.868422 111.368506 
L 163.954223 118.769013 
L 165.040024 120.906228 
L 166.125825 122.245975 
L 167.211627 124.223696 
L 168.297428 131.369013 
L 169.383229 121.033823 
L 170.46903 121.320911 
L 171.554831 123.139139 
L 172.640632 114.526481 
L 173.726434 119.566481 
L 174.812235 115.579139 
L 175.898036 117.429266 
L 176.983837 135.771038 
L 178.069638 118.32243 
L 179.155439 125.691038 
L 180.24124 117.907747 
L 181.327042 117.301671 
L 182.412843 121.544203 
L 183.498644 114.30319 
L 184.584445 117.429266 
L 185.670246 123.809013 
L 186.756047 150.603949 
L 187.841849 119.375089 
L 188.92765 133.059646 
L 190.013451 133.123443 
L 191.099252 122.533063 
L 192.185053 143.554329 
L 193.270854 121.895089 
L 194.356656 140.300658 
L 195.442457 122.852051 
L 196.528258 111.145215 
L 198.69986 118.290532 
L 199.785661 118.992304 
L 200.871462 119.85357 
L 201.957264 113.856608 
L 203.043065 122.054582 
L 204.128866 125.435848 
L 205.214667 116.82319 
L 206.300468 122.022684 
L 207.386269 143.618127 
L 208.472071 118.450025 
L 209.557872 119.375089 
L 210.643673 104.47838 
L 211.729474 130.380152 
L 212.815275 129.455089 
L 213.901076 113.314329 
L 214.986877 118.386228 
L 216.072679 122.469266 
L 217.15848 112.740152 
L 218.244281 115.004962 
L 219.330082 120.651038 
L 220.415883 111.432304 
L 221.501684 128.179139 
L 222.587486 111.528 
L 223.673287 114.877367 
L 224.759088 121.86319 
L 225.844889 126.584203 
L 226.93069 121.033823 
L 228.016491 109.709772 
L 229.102292 122.11838 
L 230.188094 131.050025 
L 231.273895 113.346228 
L 232.359696 117.652557 
L 233.445497 131.592304 
L 234.531298 119.088 
L 235.617099 59.947747 
L 236.702901 59.277873 
L 237.788702 58.831291 
L 238.874503 58.225215 
L 239.960304 57.013063 
L 241.046105 58.608 
L 242.131906 57.682937 
L 243.217708 59.022684 
L 244.303509 58.895089 
L 245.38931 57.938127 
L 246.475111 58.384709 
L 247.560912 58.576101 
L 248.646713 58.35281 
L 249.732514 57.076861 
L 250.818316 57.268253 
L 251.904117 58.09762 
L 252.989918 59.469266 
L 254.075719 58.384709 
L 255.16152 58.289013 
L 256.247321 58.671797 
L 257.333123 58.416608 
L 258.418924 59.756354 
L 259.504725 58.193316 
L 260.590526 60.585722 
L 261.676327 59.37357 
L 262.762128 58.544203 
L 263.847929 60.426228 
L 264.933731 60.681418 
L 266.019532 59.405468 
L 267.105333 61.191797 
L 268.191134 59.947747 
L 269.276935 62.435848 
L 270.362736 63.90319 
L 271.448538 67.284456 
L 272.534339 64.828253 
L 273.62014 67.475848 
L 274.705941 69.581165 
L 275.791742 68.94319 
L 276.877543 71.303696 
L 277.963344 68.369013 
L 279.049146 69.740658 
L 280.134947 68.050025 
L 281.220748 69.932051 
L 282.306549 70.920911 
L 283.39235 70.506228 
L 284.478151 74.23838 
L 285.563953 68.719899 
L 286.649754 69.708759 
L 287.735555 72.164962 
L 288.821356 71.654582 
L 289.907157 74.876354 
L 290.992958 71.144203 
L 292.07876 69.836354 
L 293.164561 69.676861 
L 294.250362 71.016608 
L 295.336163 73.121924 
L 296.421964 73.121924 
L 297.507765 72.324456 
L 298.593566 71.239899 
L 299.679368 73.791797 
L 300.765169 72.675342 
L 301.85097 72.96243 
L 302.936771 76.439392 
L 304.022572 77.141165 
L 305.108373 69.230278 
L 306.194175 77.077367 
L 307.279976 70.857114 
L 308.365777 74.844456 
L 309.451578 75.48243 
L 310.537379 78.321418 
L 311.62318 70.69762 
L 312.708981 74.684962 
L 313.794783 71.431291 
L 314.880584 73.185722 
L 315.966385 76.885975 
L 317.052186 57.938127 
L 318.137987 57.204456 
L 319.223788 56.311291 
L 320.30959 55.960405 
L 321.395391 55.32243 
L 322.481192 55.067241 
L 323.566993 55.162937 
L 324.652794 55.418127 
L 325.738595 54.205975 
L 326.824396 55.194835 
L 327.910198 54.397367 
L 328.995999 55.354329 
L 330.0818 55.226734 
L 331.167601 54.110278 
L 332.253402 54.620658 
L 333.339203 54.365468 
L 334.425005 54.237873 
L 335.510806 53.982684 
L 337.682408 54.461165 
L 338.768209 54.142177 
L 339.85401 54.461165 
L 340.939811 54.174076 
L 342.025613 54.716354 
L 343.111414 54.014582 
L 344.197215 53.855089 
L 345.283016 54.110278 
L 346.368817 53.855089 
L 347.454618 54.365468 
L 349.626221 53.918886 
L 350.712022 54.237873 
L 352.883624 54.07838 
L 353.969425 54.556861 
L 357.226829 54.014582 
L 358.31263 53.599899 
L 360.484232 53.82319 
L 361.570033 53.759392 
L 362.655835 54.110278 
L 364.827437 54.205975 
L 365.913238 53.695595 
L 366.999039 53.568 
L 369.170642 53.918886 
L 371.342244 53.982684 
L 372.428045 54.33357 
L 373.513846 53.950785 
L 374.599647 53.695595 
L 375.685448 53.791291 
L 376.77125 54.269772 
L 377.857051 53.727494 
L 378.942852 54.237873 
L 380.028653 54.205975 
L 381.114454 54.843949 
L 382.200255 53.982684 
L 383.286057 54.812051 
L 384.371858 53.886987 
L 385.457659 54.269772 
L 386.54346 54.110278 
L 387.629261 54.174076 
L 388.715062 53.855089 
L 389.800863 54.046481 
L 390.886665 54.524962 
L 391.972466 54.174076 
L 393.058267 54.269772 
L 394.144068 54.524962 
L 395.229869 54.524962 
L 396.31567 53.982684 
L 397.401472 54.493063 
L 398.487273 54.142177 
L 398.487273 54.142177 
" style="fill:none;stroke:#ff0000;stroke-linecap:square;stroke-width:1.5;"/>
   </g>
   <g id="patch_3">
    <path d="M 57.6 307.584 
L 57.6 41.472 
" style="fill:none;stroke:#000000;stroke-linecap:square;stroke-linejoin:miter;stroke-width:0.8;"/>
   </g>
   <g id="patch_4">
    <path d="M 414.72 307.584 
L 414.72 41.472 
" style="fill:none;stroke:#000000;stroke-linecap:square;stroke-linejoin:miter;stroke-width:0.8;"/>
   </g>
   <g id="patch_5">
    <path d="M 57.6 307.584 
L 414.72 307.584 
" style="fill:none;stroke:#000000;stroke-linecap:square;stroke-linejoin:miter;stroke-width:0.8;"/>
   </g>
   <g id="patch_6">
    <path d="M 57.6 41.472 
L 414.72 41.472 
" style="fill:none;stroke:#000000;stroke-linecap:square;stroke-linejoin:miter;stroke-width:0.8;"/>
   </g>
   <g id="text_18">
    <!-- val acc comparsion -->
    <g transform="translate(178.142812 35.472)scale(0.12 -0.12)">
     <defs>
      <path d="M 191 3500 
L 800 3500 
L 1894 563 
L 2988 3500 
L 3597 3500 
L 2284 0 
L 1503 0 
L 191 3500 
z
" id="DejaVuSans-76" transform="scale(0.015625)"/>
      <path d="M 603 4863 
L 1178 4863 
L 1178 0 
L 603 0 
L 603 4863 
z
" id="DejaVuSans-6c" transform="scale(0.015625)"/>
      <path id="DejaVuSans-20" transform="scale(0.015625)"/>
      <path d="M 3328 2828 
Q 3544 3216 3844 3400 
Q 4144 3584 4550 3584 
Q 5097 3584 5394 3201 
Q 5691 2819 5691 2113 
L 5691 0 
L 5113 0 
L 5113 2094 
Q 5113 2597 4934 2840 
Q 4756 3084 4391 3084 
Q 3944 3084 3684 2787 
Q 3425 2491 3425 1978 
L 3425 0 
L 2847 0 
L 2847 2094 
Q 2847 2600 2669 2842 
Q 2491 3084 2119 3084 
Q 1678 3084 1418 2786 
Q 1159 2488 1159 1978 
L 1159 0 
L 581 0 
L 581 3500 
L 1159 3500 
L 1159 2956 
Q 1356 3278 1631 3431 
Q 1906 3584 2284 3584 
Q 2666 3584 2933 3390 
Q 3200 3197 3328 2828 
z
" id="DejaVuSans-6d" transform="scale(0.015625)"/>
      <path d="M 2631 2963 
Q 2534 3019 2420 3045 
Q 2306 3072 2169 3072 
Q 1681 3072 1420 2755 
Q 1159 2438 1159 1844 
L 1159 0 
L 581 0 
L 581 3500 
L 1159 3500 
L 1159 2956 
Q 1341 3275 1631 3429 
Q 1922 3584 2338 3584 
Q 2397 3584 2469 3576 
Q 2541 3569 2628 3553 
L 2631 2963 
z
" id="DejaVuSans-72" transform="scale(0.015625)"/>
      <path d="M 2834 3397 
L 2834 2853 
Q 2591 2978 2328 3040 
Q 2066 3103 1784 3103 
Q 1356 3103 1142 2972 
Q 928 2841 928 2578 
Q 928 2378 1081 2264 
Q 1234 2150 1697 2047 
L 1894 2003 
Q 2506 1872 2764 1633 
Q 3022 1394 3022 966 
Q 3022 478 2636 193 
Q 2250 -91 1575 -91 
Q 1294 -91 989 -36 
Q 684 19 347 128 
L 347 722 
Q 666 556 975 473 
Q 1284 391 1588 391 
Q 1994 391 2212 530 
Q 2431 669 2431 922 
Q 2431 1156 2273 1281 
Q 2116 1406 1581 1522 
L 1381 1569 
Q 847 1681 609 1914 
Q 372 2147 372 2553 
Q 372 3047 722 3315 
Q 1072 3584 1716 3584 
Q 2034 3584 2315 3537 
Q 2597 3491 2834 3397 
z
" id="DejaVuSans-73" transform="scale(0.015625)"/>
      <path d="M 603 3500 
L 1178 3500 
L 1178 0 
L 603 0 
L 603 3500 
z
M 603 4863 
L 1178 4863 
L 1178 4134 
L 603 4134 
L 603 4863 
z
" id="DejaVuSans-69" transform="scale(0.015625)"/>
      <path d="M 3513 2113 
L 3513 0 
L 2938 0 
L 2938 2094 
Q 2938 2591 2744 2837 
Q 2550 3084 2163 3084 
Q 1697 3084 1428 2787 
Q 1159 2491 1159 1978 
L 1159 0 
L 581 0 
L 581 3500 
L 1159 3500 
L 1159 2956 
Q 1366 3272 1645 3428 
Q 1925 3584 2291 3584 
Q 2894 3584 3203 3211 
Q 3513 2838 3513 2113 
z
" id="DejaVuSans-6e" transform="scale(0.015625)"/>
     </defs>
     <use xlink:href="#DejaVuSans-76"/>
     <use x="59.179688" xlink:href="#DejaVuSans-61"/>
     <use x="120.458984" xlink:href="#DejaVuSans-6c"/>
     <use x="148.242188" xlink:href="#DejaVuSans-20"/>
     <use x="180.029297" xlink:href="#DejaVuSans-61"/>
     <use x="241.308594" xlink:href="#DejaVuSans-63"/>
     <use x="296.289062" xlink:href="#DejaVuSans-63"/>
     <use x="351.269531" xlink:href="#DejaVuSans-20"/>
     <use x="383.056641" xlink:href="#DejaVuSans-63"/>
     <use x="438.037109" xlink:href="#DejaVuSans-6f"/>
     <use x="499.21875" xlink:href="#DejaVuSans-6d"/>
     <use x="596.630859" xlink:href="#DejaVuSans-70"/>
     <use x="660.107422" xlink:href="#DejaVuSans-61"/>
     <use x="721.386719" xlink:href="#DejaVuSans-72"/>
     <use x="762.5" xlink:href="#DejaVuSans-73"/>
     <use x="814.599609" xlink:href="#DejaVuSans-69"/>
     <use x="842.382812" xlink:href="#DejaVuSans-6f"/>
     <use x="903.564453" xlink:href="#DejaVuSans-6e"/>
    </g>
   </g>
   <g id="legend_1">
    <g id="patch_7">
     <path d="M 64.6 79.106375 
L 160.085938 79.106375 
Q 162.085938 79.106375 162.085938 77.106375 
L 162.085938 48.472 
Q 162.085938 46.472 160.085938 46.472 
L 64.6 46.472 
Q 62.6 46.472 62.6 48.472 
L 62.6 77.106375 
Q 62.6 79.106375 64.6 79.106375 
z
" style="fill:#ffffff;opacity:0.8;stroke:#cccccc;stroke-linejoin:miter;"/>
    </g>
    <g id="line2d_18">
     <path d="M 66.6 54.570438 
L 86.6 54.570438 
" style="fill:none;stroke:#000000;stroke-linecap:square;stroke-width:1.5;"/>
    </g>
    <g id="line2d_19"/>
    <g id="text_19">
     <!-- res2net -->
     <g transform="translate(94.6 58.070438)scale(0.1 -0.1)">
      <defs>
       <path d="M 1172 4494 
L 1172 3500 
L 2356 3500 
L 2356 3053 
L 1172 3053 
L 1172 1153 
Q 1172 725 1289 603 
Q 1406 481 1766 481 
L 2356 481 
L 2356 0 
L 1766 0 
Q 1100 0 847 248 
Q 594 497 594 1153 
L 594 3053 
L 172 3053 
L 172 3500 
L 594 3500 
L 594 4494 
L 1172 4494 
z
" id="DejaVuSans-74" transform="scale(0.015625)"/>
      </defs>
      <use xlink:href="#DejaVuSans-72"/>
      <use x="38.863281" xlink:href="#DejaVuSans-65"/>
      <use x="100.386719" xlink:href="#DejaVuSans-73"/>
      <use x="152.486328" xlink:href="#DejaVuSans-32"/>
      <use x="216.109375" xlink:href="#DejaVuSans-6e"/>
      <use x="279.488281" xlink:href="#DejaVuSans-65"/>
      <use x="341.011719" xlink:href="#DejaVuSans-74"/>
     </g>
    </g>
    <g id="line2d_20">
     <path d="M 66.6 69.248563 
L 86.6 69.248563 
" style="fill:none;stroke:#ff0000;stroke-linecap:square;stroke-width:1.5;"/>
    </g>
    <g id="line2d_21"/>
    <g id="text_20">
     <!-- res2net_isda -->
     <g transform="translate(94.6 72.748563)scale(0.1 -0.1)">
      <defs>
       <path d="M 3263 -1063 
L 3263 -1509 
L -63 -1509 
L -63 -1063 
L 3263 -1063 
z
" id="DejaVuSans-5f" transform="scale(0.015625)"/>
       <path d="M 2906 2969 
L 2906 4863 
L 3481 4863 
L 3481 0 
L 2906 0 
L 2906 525 
Q 2725 213 2448 61 
Q 2172 -91 1784 -91 
Q 1150 -91 751 415 
Q 353 922 353 1747 
Q 353 2572 751 3078 
Q 1150 3584 1784 3584 
Q 2172 3584 2448 3432 
Q 2725 3281 2906 2969 
z
M 947 1747 
Q 947 1113 1208 752 
Q 1469 391 1925 391 
Q 2381 391 2643 752 
Q 2906 1113 2906 1747 
Q 2906 2381 2643 2742 
Q 2381 3103 1925 3103 
Q 1469 3103 1208 2742 
Q 947 2381 947 1747 
z
" id="DejaVuSans-64" transform="scale(0.015625)"/>
      </defs>
      <use xlink:href="#DejaVuSans-72"/>
      <use x="38.863281" xlink:href="#DejaVuSans-65"/>
      <use x="100.386719" xlink:href="#DejaVuSans-73"/>
      <use x="152.486328" xlink:href="#DejaVuSans-32"/>
      <use x="216.109375" xlink:href="#DejaVuSans-6e"/>
      <use x="279.488281" xlink:href="#DejaVuSans-65"/>
      <use x="341.011719" xlink:href="#DejaVuSans-74"/>
      <use x="380.220703" xlink:href="#DejaVuSans-5f"/>
      <use x="430.220703" xlink:href="#DejaVuSans-69"/>
      <use x="458.003906" xlink:href="#DejaVuSans-73"/>
      <use x="510.103516" xlink:href="#DejaVuSans-64"/>
      <use x="573.580078" xlink:href="#DejaVuSans-61"/>
     </g>
    </g>
   </g>
  </g>
 </g>
 <defs>
  <clipPath id="pce5ee42f77">
   <rect height="266.112" width="357.12" x="57.6" y="41.472"/>
  </clipPath>
 </defs>
</svg>
