<?xml version="1.0" encoding="utf-8" standalone="no"?>
<!DOCTYPE svg PUBLIC "-//W3C//DTD SVG 1.1//EN"
  "http://www.w3.org/Graphics/SVG/1.1/DTD/svg11.dtd">
<svg height="345.6pt" version="1.1" viewBox="0 0 460.8 345.6" width="460.8pt" xmlns="http://www.w3.org/2000/svg" xmlns:xlink="http://www.w3.org/1999/xlink">
 <metadata>
  <rdf:RDF xmlns:cc="http://creativecommons.org/ns#" xmlns:dc="http://purl.org/dc/elements/1.1/" xmlns:rdf="http://www.w3.org/1999/02/22-rdf-syntax-ns#">
   <cc:Work>
    <dc:type rdf:resource="http://purl.org/dc/dcmitype/StillImage"/>
    <dc:date>2023-05-25T11:43:37.777595</dc:date>
    <dc:format>image/svg+xml</dc:format>
    <dc:creator>
     <cc:Agent>
      <dc:title>Matplotlib v3.4.3, https://matplotlib.org/</dc:title>
     </cc:Agent>
    </dc:creator>
   </cc:Work>
  </rdf:RDF>
 </metadata>
 <defs>
  <style type="text/css">*{stroke-linecap:butt;stroke-linejoin:round;}</style>
 </defs>
 <g id="figure_1">
  <g id="patch_1">
   <path d="M 0 345.6 
L 460.8 345.6 
L 460.8 0 
L 0 0 
z
" style="fill:#ffffff;"/>
  </g>
  <g id="axes_1">
   <g id="patch_2">
    <path d="M 57.6 307.584 
L 414.72 307.584 
L 414.72 41.472 
L 57.6 41.472 
z
" style="fill:#ffffff;"/>
   </g>
   <g id="matplotlib.axis_1">
    <g id="xtick_1">
     <g id="line2d_1">
      <defs>
       <path d="M 0 0 
L 0 3.5 
" id="m1bb40da968" style="stroke:#000000;stroke-width:0.8;"/>
      </defs>
      <g>
       <use style="stroke:#000000;stroke-width:0.8;" x="72.746926" xlink:href="#m1bb40da968" y="307.584"/>
      </g>
     </g>
     <g id="text_1">
      <!-- 0 -->
      <g transform="translate(69.565676 322.182437)scale(0.1 -0.1)">
       <defs>
        <path d="M 2034 4250 
Q 1547 4250 1301 3770 
Q 1056 3291 1056 2328 
Q 1056 1369 1301 889 
Q 1547 409 2034 409 
Q 2525 409 2770 889 
Q 3016 1369 3016 2328 
Q 3016 3291 2770 3770 
Q 2525 4250 2034 4250 
z
M 2034 4750 
Q 2819 4750 3233 4129 
Q 3647 3509 3647 2328 
Q 3647 1150 3233 529 
Q 2819 -91 2034 -91 
Q 1250 -91 836 529 
Q 422 1150 422 2328 
Q 422 3509 836 4129 
Q 1250 4750 2034 4750 
z
" id="DejaVuSans-30" transform="scale(0.015625)"/>
       </defs>
       <use xlink:href="#DejaVuSans-30"/>
      </g>
     </g>
    </g>
    <g id="xtick_2">
     <g id="line2d_2">
      <g>
       <use style="stroke:#000000;stroke-width:0.8;" x="127.036984" xlink:href="#m1bb40da968" y="307.584"/>
      </g>
     </g>
     <g id="text_2">
      <!-- 50 -->
      <g transform="translate(120.674484 322.182437)scale(0.1 -0.1)">
       <defs>
        <path d="M 691 4666 
L 3169 4666 
L 3169 4134 
L 1269 4134 
L 1269 2991 
Q 1406 3038 1543 3061 
Q 1681 3084 1819 3084 
Q 2600 3084 3056 2656 
Q 3513 2228 3513 1497 
Q 3513 744 3044 326 
Q 2575 -91 1722 -91 
Q 1428 -91 1123 -41 
Q 819 9 494 109 
L 494 744 
Q 775 591 1075 516 
Q 1375 441 1709 441 
Q 2250 441 2565 725 
Q 2881 1009 2881 1497 
Q 2881 1984 2565 2268 
Q 2250 2553 1709 2553 
Q 1456 2553 1204 2497 
Q 953 2441 691 2322 
L 691 4666 
z
" id="DejaVuSans-35" transform="scale(0.015625)"/>
       </defs>
       <use xlink:href="#DejaVuSans-35"/>
       <use x="63.623047" xlink:href="#DejaVuSans-30"/>
      </g>
     </g>
    </g>
    <g id="xtick_3">
     <g id="line2d_3">
      <g>
       <use style="stroke:#000000;stroke-width:0.8;" x="181.327042" xlink:href="#m1bb40da968" y="307.584"/>
      </g>
     </g>
     <g id="text_3">
      <!-- 100 -->
      <g transform="translate(171.783292 322.182437)scale(0.1 -0.1)">
       <defs>
        <path d="M 794 531 
L 1825 531 
L 1825 4091 
L 703 3866 
L 703 4441 
L 1819 4666 
L 2450 4666 
L 2450 531 
L 3481 531 
L 3481 0 
L 794 0 
L 794 531 
z
" id="DejaVuSans-31" transform="scale(0.015625)"/>
       </defs>
       <use xlink:href="#DejaVuSans-31"/>
       <use x="63.623047" xlink:href="#DejaVuSans-30"/>
       <use x="127.246094" xlink:href="#DejaVuSans-30"/>
      </g>
     </g>
    </g>
    <g id="xtick_4">
     <g id="line2d_4">
      <g>
       <use style="stroke:#000000;stroke-width:0.8;" x="235.617099" xlink:href="#m1bb40da968" y="307.584"/>
      </g>
     </g>
     <g id="text_4">
      <!-- 150 -->
      <g transform="translate(226.073349 322.182437)scale(0.1 -0.1)">
       <use xlink:href="#DejaVuSans-31"/>
       <use x="63.623047" xlink:href="#DejaVuSans-35"/>
       <use x="127.246094" xlink:href="#DejaVuSans-30"/>
      </g>
     </g>
    </g>
    <g id="xtick_5">
     <g id="line2d_5">
      <g>
       <use style="stroke:#000000;stroke-width:0.8;" x="289.907157" xlink:href="#m1bb40da968" y="307.584"/>
      </g>
     </g>
     <g id="text_5">
      <!-- 200 -->
      <g transform="translate(280.363407 322.182437)scale(0.1 -0.1)">
       <defs>
        <path d="M 1228 531 
L 3431 531 
L 3431 0 
L 469 0 
L 469 531 
Q 828 903 1448 1529 
Q 2069 2156 2228 2338 
Q 2531 2678 2651 2914 
Q 2772 3150 2772 3378 
Q 2772 3750 2511 3984 
Q 2250 4219 1831 4219 
Q 1534 4219 1204 4116 
Q 875 4013 500 3803 
L 500 4441 
Q 881 4594 1212 4672 
Q 1544 4750 1819 4750 
Q 2544 4750 2975 4387 
Q 3406 4025 3406 3419 
Q 3406 3131 3298 2873 
Q 3191 2616 2906 2266 
Q 2828 2175 2409 1742 
Q 1991 1309 1228 531 
z
" id="DejaVuSans-32" transform="scale(0.015625)"/>
       </defs>
       <use xlink:href="#DejaVuSans-32"/>
       <use x="63.623047" xlink:href="#DejaVuSans-30"/>
       <use x="127.246094" xlink:href="#DejaVuSans-30"/>
      </g>
     </g>
    </g>
    <g id="xtick_6">
     <g id="line2d_6">
      <g>
       <use style="stroke:#000000;stroke-width:0.8;" x="344.197215" xlink:href="#m1bb40da968" y="307.584"/>
      </g>
     </g>
     <g id="text_6">
      <!-- 250 -->
      <g transform="translate(334.653465 322.182437)scale(0.1 -0.1)">
       <use xlink:href="#DejaVuSans-32"/>
       <use x="63.623047" xlink:href="#DejaVuSans-35"/>
       <use x="127.246094" xlink:href="#DejaVuSans-30"/>
      </g>
     </g>
    </g>
    <g id="xtick_7">
     <g id="line2d_7">
      <g>
       <use style="stroke:#000000;stroke-width:0.8;" x="398.487273" xlink:href="#m1bb40da968" y="307.584"/>
      </g>
     </g>
     <g id="text_7">
      <!-- 300 -->
      <g transform="translate(388.943523 322.182437)scale(0.1 -0.1)">
       <defs>
        <path d="M 2597 2516 
Q 3050 2419 3304 2112 
Q 3559 1806 3559 1356 
Q 3559 666 3084 287 
Q 2609 -91 1734 -91 
Q 1441 -91 1130 -33 
Q 819 25 488 141 
L 488 750 
Q 750 597 1062 519 
Q 1375 441 1716 441 
Q 2309 441 2620 675 
Q 2931 909 2931 1356 
Q 2931 1769 2642 2001 
Q 2353 2234 1838 2234 
L 1294 2234 
L 1294 2753 
L 1863 2753 
Q 2328 2753 2575 2939 
Q 2822 3125 2822 3475 
Q 2822 3834 2567 4026 
Q 2313 4219 1838 4219 
Q 1578 4219 1281 4162 
Q 984 4106 628 3988 
L 628 4550 
Q 988 4650 1302 4700 
Q 1616 4750 1894 4750 
Q 2613 4750 3031 4423 
Q 3450 4097 3450 3541 
Q 3450 3153 3228 2886 
Q 3006 2619 2597 2516 
z
" id="DejaVuSans-33" transform="scale(0.015625)"/>
       </defs>
       <use xlink:href="#DejaVuSans-33"/>
       <use x="63.623047" xlink:href="#DejaVuSans-30"/>
       <use x="127.246094" xlink:href="#DejaVuSans-30"/>
      </g>
     </g>
    </g>
    <g id="text_8">
     <!-- epoch -->
     <g transform="translate(220.931875 335.860562)scale(0.1 -0.1)">
      <defs>
       <path d="M 3597 1894 
L 3597 1613 
L 953 1613 
Q 991 1019 1311 708 
Q 1631 397 2203 397 
Q 2534 397 2845 478 
Q 3156 559 3463 722 
L 3463 178 
Q 3153 47 2828 -22 
Q 2503 -91 2169 -91 
Q 1331 -91 842 396 
Q 353 884 353 1716 
Q 353 2575 817 3079 
Q 1281 3584 2069 3584 
Q 2775 3584 3186 3129 
Q 3597 2675 3597 1894 
z
M 3022 2063 
Q 3016 2534 2758 2815 
Q 2500 3097 2075 3097 
Q 1594 3097 1305 2825 
Q 1016 2553 972 2059 
L 3022 2063 
z
" id="DejaVuSans-65" transform="scale(0.015625)"/>
       <path d="M 1159 525 
L 1159 -1331 
L 581 -1331 
L 581 3500 
L 1159 3500 
L 1159 2969 
Q 1341 3281 1617 3432 
Q 1894 3584 2278 3584 
Q 2916 3584 3314 3078 
Q 3713 2572 3713 1747 
Q 3713 922 3314 415 
Q 2916 -91 2278 -91 
Q 1894 -91 1617 61 
Q 1341 213 1159 525 
z
M 3116 1747 
Q 3116 2381 2855 2742 
Q 2594 3103 2138 3103 
Q 1681 3103 1420 2742 
Q 1159 2381 1159 1747 
Q 1159 1113 1420 752 
Q 1681 391 2138 391 
Q 2594 391 2855 752 
Q 3116 1113 3116 1747 
z
" id="DejaVuSans-70" transform="scale(0.015625)"/>
       <path d="M 1959 3097 
Q 1497 3097 1228 2736 
Q 959 2375 959 1747 
Q 959 1119 1226 758 
Q 1494 397 1959 397 
Q 2419 397 2687 759 
Q 2956 1122 2956 1747 
Q 2956 2369 2687 2733 
Q 2419 3097 1959 3097 
z
M 1959 3584 
Q 2709 3584 3137 3096 
Q 3566 2609 3566 1747 
Q 3566 888 3137 398 
Q 2709 -91 1959 -91 
Q 1206 -91 779 398 
Q 353 888 353 1747 
Q 353 2609 779 3096 
Q 1206 3584 1959 3584 
z
" id="DejaVuSans-6f" transform="scale(0.015625)"/>
       <path d="M 3122 3366 
L 3122 2828 
Q 2878 2963 2633 3030 
Q 2388 3097 2138 3097 
Q 1578 3097 1268 2742 
Q 959 2388 959 1747 
Q 959 1106 1268 751 
Q 1578 397 2138 397 
Q 2388 397 2633 464 
Q 2878 531 3122 666 
L 3122 134 
Q 2881 22 2623 -34 
Q 2366 -91 2075 -91 
Q 1284 -91 818 406 
Q 353 903 353 1747 
Q 353 2603 823 3093 
Q 1294 3584 2113 3584 
Q 2378 3584 2631 3529 
Q 2884 3475 3122 3366 
z
" id="DejaVuSans-63" transform="scale(0.015625)"/>
       <path d="M 3513 2113 
L 3513 0 
L 2938 0 
L 2938 2094 
Q 2938 2591 2744 2837 
Q 2550 3084 2163 3084 
Q 1697 3084 1428 2787 
Q 1159 2491 1159 1978 
L 1159 0 
L 581 0 
L 581 4863 
L 1159 4863 
L 1159 2956 
Q 1366 3272 1645 3428 
Q 1925 3584 2291 3584 
Q 2894 3584 3203 3211 
Q 3513 2838 3513 2113 
z
" id="DejaVuSans-68" transform="scale(0.015625)"/>
      </defs>
      <use xlink:href="#DejaVuSans-65"/>
      <use x="61.523438" xlink:href="#DejaVuSans-70"/>
      <use x="125" xlink:href="#DejaVuSans-6f"/>
      <use x="186.181641" xlink:href="#DejaVuSans-63"/>
      <use x="241.162109" xlink:href="#DejaVuSans-68"/>
     </g>
    </g>
   </g>
   <g id="matplotlib.axis_2">
    <g id="ytick_1">
     <g id="line2d_8">
      <defs>
       <path d="M 0 0 
L -3.5 0 
" id="me6c3c1393b" style="stroke:#000000;stroke-width:0.8;"/>
      </defs>
      <g>
       <use style="stroke:#000000;stroke-width:0.8;" x="57.6" xlink:href="#me6c3c1393b" y="277.220257"/>
      </g>
     </g>
     <g id="text_9">
      <!-- 1.0 -->
      <g transform="translate(34.696875 281.019476)scale(0.1 -0.1)">
       <defs>
        <path d="M 684 794 
L 1344 794 
L 1344 0 
L 684 0 
L 684 794 
z
" id="DejaVuSans-2e" transform="scale(0.015625)"/>
       </defs>
       <use xlink:href="#DejaVuSans-31"/>
       <use x="63.623047" xlink:href="#DejaVuSans-2e"/>
       <use x="95.410156" xlink:href="#DejaVuSans-30"/>
      </g>
     </g>
    </g>
    <g id="ytick_2">
     <g id="line2d_9">
      <g>
       <use style="stroke:#000000;stroke-width:0.8;" x="57.6" xlink:href="#me6c3c1393b" y="244.44702"/>
      </g>
     </g>
     <g id="text_10">
      <!-- 1.5 -->
      <g transform="translate(34.696875 248.246238)scale(0.1 -0.1)">
       <use xlink:href="#DejaVuSans-31"/>
       <use x="63.623047" xlink:href="#DejaVuSans-2e"/>
       <use x="95.410156" xlink:href="#DejaVuSans-35"/>
      </g>
     </g>
    </g>
    <g id="ytick_3">
     <g id="line2d_10">
      <g>
       <use style="stroke:#000000;stroke-width:0.8;" x="57.6" xlink:href="#me6c3c1393b" y="211.673782"/>
      </g>
     </g>
     <g id="text_11">
      <!-- 2.0 -->
      <g transform="translate(34.696875 215.473001)scale(0.1 -0.1)">
       <use xlink:href="#DejaVuSans-32"/>
       <use x="63.623047" xlink:href="#DejaVuSans-2e"/>
       <use x="95.410156" xlink:href="#DejaVuSans-30"/>
      </g>
     </g>
    </g>
    <g id="ytick_4">
     <g id="line2d_11">
      <g>
       <use style="stroke:#000000;stroke-width:0.8;" x="57.6" xlink:href="#me6c3c1393b" y="178.900545"/>
      </g>
     </g>
     <g id="text_12">
      <!-- 2.5 -->
      <g transform="translate(34.696875 182.699763)scale(0.1 -0.1)">
       <use xlink:href="#DejaVuSans-32"/>
       <use x="63.623047" xlink:href="#DejaVuSans-2e"/>
       <use x="95.410156" xlink:href="#DejaVuSans-35"/>
      </g>
     </g>
    </g>
    <g id="ytick_5">
     <g id="line2d_12">
      <g>
       <use style="stroke:#000000;stroke-width:0.8;" x="57.6" xlink:href="#me6c3c1393b" y="146.127307"/>
      </g>
     </g>
     <g id="text_13">
      <!-- 3.0 -->
      <g transform="translate(34.696875 149.926526)scale(0.1 -0.1)">
       <use xlink:href="#DejaVuSans-33"/>
       <use x="63.623047" xlink:href="#DejaVuSans-2e"/>
       <use x="95.410156" xlink:href="#DejaVuSans-30"/>
      </g>
     </g>
    </g>
    <g id="ytick_6">
     <g id="line2d_13">
      <g>
       <use style="stroke:#000000;stroke-width:0.8;" x="57.6" xlink:href="#me6c3c1393b" y="113.354069"/>
      </g>
     </g>
     <g id="text_14">
      <!-- 3.5 -->
      <g transform="translate(34.696875 117.153288)scale(0.1 -0.1)">
       <use xlink:href="#DejaVuSans-33"/>
       <use x="63.623047" xlink:href="#DejaVuSans-2e"/>
       <use x="95.410156" xlink:href="#DejaVuSans-35"/>
      </g>
     </g>
    </g>
    <g id="ytick_7">
     <g id="line2d_14">
      <g>
       <use style="stroke:#000000;stroke-width:0.8;" x="57.6" xlink:href="#me6c3c1393b" y="80.580832"/>
      </g>
     </g>
     <g id="text_15">
      <!-- 4.0 -->
      <g transform="translate(34.696875 84.380051)scale(0.1 -0.1)">
       <defs>
        <path d="M 2419 4116 
L 825 1625 
L 2419 1625 
L 2419 4116 
z
M 2253 4666 
L 3047 4666 
L 3047 1625 
L 3713 1625 
L 3713 1100 
L 3047 1100 
L 3047 0 
L 2419 0 
L 2419 1100 
L 313 1100 
L 313 1709 
L 2253 4666 
z
" id="DejaVuSans-34" transform="scale(0.015625)"/>
       </defs>
       <use xlink:href="#DejaVuSans-34"/>
       <use x="63.623047" xlink:href="#DejaVuSans-2e"/>
       <use x="95.410156" xlink:href="#DejaVuSans-30"/>
      </g>
     </g>
    </g>
    <g id="ytick_8">
     <g id="line2d_15">
      <g>
       <use style="stroke:#000000;stroke-width:0.8;" x="57.6" xlink:href="#me6c3c1393b" y="47.807594"/>
      </g>
     </g>
     <g id="text_16">
      <!-- 4.5 -->
      <g transform="translate(34.696875 51.606813)scale(0.1 -0.1)">
       <use xlink:href="#DejaVuSans-34"/>
       <use x="63.623047" xlink:href="#DejaVuSans-2e"/>
       <use x="95.410156" xlink:href="#DejaVuSans-35"/>
      </g>
     </g>
    </g>
    <g id="text_17">
     <!-- loss -->
     <g transform="translate(28.617188 184.185812)rotate(-90)scale(0.1 -0.1)">
      <defs>
       <path d="M 603 4863 
L 1178 4863 
L 1178 0 
L 603 0 
L 603 4863 
z
" id="DejaVuSans-6c" transform="scale(0.015625)"/>
       <path d="M 2834 3397 
L 2834 2853 
Q 2591 2978 2328 3040 
Q 2066 3103 1784 3103 
Q 1356 3103 1142 2972 
Q 928 2841 928 2578 
Q 928 2378 1081 2264 
Q 1234 2150 1697 2047 
L 1894 2003 
Q 2506 1872 2764 1633 
Q 3022 1394 3022 966 
Q 3022 478 2636 193 
Q 2250 -91 1575 -91 
Q 1294 -91 989 -36 
Q 684 19 347 128 
L 347 722 
Q 666 556 975 473 
Q 1284 391 1588 391 
Q 1994 391 2212 530 
Q 2431 669 2431 922 
Q 2431 1156 2273 1281 
Q 2116 1406 1581 1522 
L 1381 1569 
Q 847 1681 609 1914 
Q 372 2147 372 2553 
Q 372 3047 722 3315 
Q 1072 3584 1716 3584 
Q 2034 3584 2315 3537 
Q 2597 3491 2834 3397 
z
" id="DejaVuSans-73" transform="scale(0.015625)"/>
      </defs>
      <use xlink:href="#DejaVuSans-6c"/>
      <use x="27.783203" xlink:href="#DejaVuSans-6f"/>
      <use x="88.964844" xlink:href="#DejaVuSans-73"/>
      <use x="141.064453" xlink:href="#DejaVuSans-73"/>
     </g>
    </g>
   </g>
   <g id="line2d_16">
    <path clip-path="url(#pac0f5acd7d)" d="M 73.832727 53.697457 
L 74.918528 83.756778 
L 76.00433 103.443754 
L 77.090131 127.426058 
L 78.175932 156.796593 
L 79.261733 162.292268 
L 80.347534 175.154188 
L 81.433335 205.186317 
L 82.519137 219.610005 
L 83.604938 216.389837 
L 84.690739 225.340024 
L 85.77654 223.774555 
L 86.862341 241.198423 
L 89.033943 227.978016 
L 90.119745 223.024956 
L 91.205546 237.672661 
L 92.291347 231.228421 
L 93.377148 245.017668 
L 94.462949 239.755217 
L 95.54875 225.002587 
L 96.634552 239.098086 
L 97.720353 233.480156 
L 98.806154 239.432636 
L 99.891955 248.953588 
L 100.977756 239.895982 
L 102.063557 250.912498 
L 103.149358 243.95026 
L 104.23516 236.049424 
L 105.320961 230.350778 
L 106.406762 245.836867 
L 107.492563 242.290081 
L 108.578364 244.900902 
L 109.664165 238.995219 
L 110.749967 241.561941 
L 111.835768 234.900068 
L 112.921569 236.840291 
L 114.00737 252.26704 
L 115.093171 228.408706 
L 116.178972 225.511602 
L 117.264773 246.259433 
L 118.350575 238.916564 
L 119.436376 254.646116 
L 121.607978 240.398769 
L 123.77958 232.785619 
L 124.865382 223.917261 
L 125.951183 227.905862 
L 127.036984 234.057872 
L 128.122785 230.440531 
L 129.208586 229.274796 
L 130.294387 246.002592 
L 131.380189 226.527024 
L 132.46599 232.460114 
L 134.637592 246.940486 
L 135.723393 239.742101 
L 136.809194 247.987484 
L 137.894995 241.485292 
L 138.980797 240.649953 
L 140.066598 236.548765 
L 141.152399 223.327988 
L 142.2382 246.543881 
L 143.324001 244.172713 
L 144.409802 244.988656 
L 145.495604 230.833322 
L 146.581405 239.91023 
L 147.667206 232.081683 
L 148.753007 227.587645 
L 149.838808 241.175073 
L 150.924609 247.199655 
L 152.01041 216.911127 
L 153.096212 244.756944 
L 154.182013 244.155077 
L 155.267814 244.950738 
L 156.353615 237.723711 
L 157.439416 247.329118 
L 158.525217 254.118254 
L 159.611019 233.626404 
L 160.69682 246.778772 
L 161.782621 248.113856 
L 162.868422 244.096391 
L 163.954223 243.116987 
L 165.040024 253.482456 
L 166.125825 250.122537 
L 167.211627 247.555333 
L 168.297428 248.742491 
L 169.383229 244.974348 
L 170.46903 249.44627 
L 171.554831 244.534913 
L 172.640632 247.00917 
L 173.726434 246.976946 
L 174.812235 223.559784 
L 175.898036 232.756481 
L 176.983837 249.273355 
L 178.069638 238.798443 
L 179.155439 232.95646 
L 180.24124 250.445414 
L 181.327042 251.828021 
L 182.412843 234.735088 
L 183.498644 241.365017 
L 184.584445 217.032403 
L 185.670246 250.507165 
L 186.756047 240.076821 
L 187.841849 254.163866 
L 188.92765 236.128089 
L 190.013451 239.467019 
L 191.099252 250.434761 
L 192.185053 245.023559 
L 193.270854 257.177994 
L 194.356656 247.672118 
L 195.442457 252.788381 
L 196.528258 249.801222 
L 197.614059 238.898938 
L 198.69986 244.324782 
L 199.785661 236.090603 
L 200.871462 235.687985 
L 201.957264 231.299748 
L 203.043065 232.316889 
L 204.128866 241.554307 
L 205.214667 246.19565 
L 206.300468 236.711694 
L 207.386269 251.991735 
L 208.472071 245.375924 
L 209.557872 240.920146 
L 210.643673 238.380762 
L 211.729474 245.729271 
L 212.815275 235.428806 
L 213.901076 232.06717 
L 214.986877 249.466797 
L 216.072679 234.989054 
L 217.15848 233.344927 
L 218.244281 245.675068 
L 219.330082 248.097363 
L 220.415883 241.495492 
L 221.501684 248.730877 
L 222.587486 230.267356 
L 223.673287 242.4402 
L 224.759088 237.086379 
L 225.844889 246.592326 
L 226.93069 243.519883 
L 228.016491 250.413407 
L 229.102292 247.62466 
L 230.188094 233.606034 
L 231.273895 239.959315 
L 232.359696 247.382204 
L 233.445497 236.41981 
L 234.531298 251.767121 
L 235.617099 295.448217 
L 236.702901 295.488 
L 237.788702 294.808811 
L 238.874503 294.810367 
L 239.960304 293.308317 
L 241.046105 292.467962 
L 242.131906 292.057111 
L 243.217708 291.37285 
L 246.475111 289.82576 
L 247.560912 290.331459 
L 248.646713 289.307055 
L 249.732514 289.78041 
L 250.818316 289.894818 
L 251.904117 289.287911 
L 252.989918 289.60141 
L 254.075719 289.024841 
L 255.16152 289.391386 
L 256.247321 289.129068 
L 257.333123 289.451257 
L 258.418924 288.419432 
L 259.504725 289.760128 
L 260.590526 289.255033 
L 261.676327 287.286016 
L 262.762128 287.707607 
L 263.847929 287.377964 
L 264.933731 286.858082 
L 266.019532 287.166456 
L 267.105333 285.287539 
L 268.191134 283.6405 
L 269.276935 284.994175 
L 270.362736 281.506982 
L 271.448538 283.06722 
L 272.534339 280.75148 
L 273.62014 282.936123 
L 274.705941 281.866728 
L 275.791742 280.314241 
L 276.877543 280.016188 
L 277.963344 279.601592 
L 279.049146 276.19291 
L 280.134947 277.371543 
L 281.220748 273.290151 
L 282.306549 277.491525 
L 283.39235 267.871895 
L 284.478151 271.281075 
L 285.563953 275.229367 
L 286.649754 276.284933 
L 288.821356 264.404691 
L 289.907157 271.269347 
L 290.992958 272.420247 
L 292.07876 272.222894 
L 293.164561 270.28466 
L 294.250362 271.767075 
L 296.421964 270.71081 
L 297.507765 267.827673 
L 298.593566 267.719589 
L 299.679368 271.409253 
L 300.765169 269.740661 
L 301.85097 271.414309 
L 302.936771 270.073991 
L 304.022572 262.769263 
L 305.108373 271.810086 
L 306.194175 271.087819 
L 307.279976 270.912285 
L 308.365777 262.014208 
L 309.451578 266.482183 
L 310.537379 268.753917 
L 311.62318 270.660293 
L 312.708981 266.405915 
L 313.794783 270.83395 
L 314.880584 267.37834 
L 315.966385 268.875406 
L 317.052186 284.508923 
L 318.137987 285.34601 
L 319.223788 285.574534 
L 323.566993 285.591348 
L 324.652794 286.050871 
L 325.738595 285.715321 
L 327.910198 285.755892 
L 328.995999 285.817694 
L 330.0818 286.051488 
L 331.167601 285.785965 
L 332.253402 286.047615 
L 334.425005 286.096336 
L 336.596607 286.480709 
L 337.682408 286.32322 
L 338.768209 286.494152 
L 340.939811 286.646273 
L 342.025613 286.489239 
L 343.111414 286.911576 
L 344.197215 286.646456 
L 345.283016 287.045674 
L 346.368817 286.607101 
L 347.454618 286.873368 
L 348.54042 286.994428 
L 349.626221 286.95259 
L 350.712022 287.254982 
L 351.797823 287.185694 
L 352.883624 287.33413 
L 353.969425 287.295879 
L 355.055227 287.079326 
L 356.141028 287.498708 
L 357.226829 287.55247 
L 358.31263 287.323657 
L 359.398431 287.585873 
L 365.913238 287.853723 
L 366.999039 287.58629 
L 369.170642 288.081374 
L 370.256443 288.002296 
L 371.342244 288.26281 
L 373.513846 288.043552 
L 375.685448 288.627553 
L 376.77125 288.314996 
L 378.942852 288.312597 
L 380.028653 288.121024 
L 381.114454 288.623515 
L 384.371858 288.599444 
L 385.457659 288.526559 
L 386.54346 288.788872 
L 388.715062 288.871192 
L 389.800863 288.827781 
L 390.886665 288.570605 
L 391.972466 288.960074 
L 393.058267 288.866554 
L 394.144068 289.12694 
L 395.229869 288.819425 
L 396.31567 288.928084 
L 397.401472 289.192441 
L 398.487273 288.930295 
L 398.487273 288.930295 
" style="fill:none;stroke:#000000;stroke-linecap:square;stroke-width:1.5;"/>
   </g>
   <g id="line2d_17">
    <path clip-path="url(#pac0f5acd7d)" d="M 73.832727 53.568 
L 76.00433 118.126198 
L 78.175932 186.255521 
L 79.261733 182.516726 
L 80.347534 212.397186 
L 81.433335 193.937717 
L 82.519137 211.400016 
L 83.604938 226.66492 
L 84.690739 208.10172 
L 85.77654 227.380836 
L 86.862341 211.779476 
L 87.948142 239.773153 
L 89.033943 211.159127 
L 90.119745 231.42876 
L 91.205546 227.746224 
L 92.291347 237.054402 
L 93.377148 223.796355 
L 94.462949 216.465918 
L 95.54875 239.351419 
L 96.634552 243.025216 
L 97.720353 240.438978 
L 98.806154 231.999694 
L 99.891955 230.921362 
L 100.977756 237.680442 
L 102.063557 236.054537 
L 103.149358 236.173536 
L 104.23516 233.829842 
L 105.320961 243.966303 
L 106.406762 242.027029 
L 107.492563 244.75298 
L 108.578364 245.145511 
L 109.664165 243.529949 
L 110.749967 243.826361 
L 111.835768 229.498995 
L 112.921569 245.775746 
L 114.00737 242.972418 
L 115.093171 224.503662 
L 116.178972 241.72987 
L 117.264773 242.910875 
L 118.350575 248.814106 
L 120.522177 229.255539 
L 121.607978 246.942157 
L 122.693779 206.473859 
L 123.77958 247.453864 
L 124.865382 218.553986 
L 125.951183 240.455432 
L 127.036984 247.188359 
L 128.122785 247.343075 
L 129.208586 215.030206 
L 130.294387 244.090708 
L 131.380189 239.4917 
L 132.46599 242.222617 
L 133.551791 232.641744 
L 134.637592 238.723256 
L 135.723393 247.175612 
L 136.809194 228.923645 
L 137.894995 237.392772 
L 138.980797 233.582157 
L 140.066598 234.655751 
L 141.152399 231.173218 
L 142.2382 241.874889 
L 143.324001 227.898475 
L 144.409802 221.691539 
L 145.495604 241.23258 
L 146.581405 237.972 
L 147.667206 226.702586 
L 148.753007 244.839416 
L 149.838808 250.083289 
L 150.924609 237.335816 
L 152.01041 234.834582 
L 153.096212 224.434431 
L 154.182013 240.060171 
L 155.267814 239.514122 
L 156.353615 239.645641 
L 157.439416 246.91514 
L 158.525217 238.334658 
L 159.611019 231.492481 
L 160.69682 226.2645 
L 161.782621 217.717938 
L 162.868422 252.810095 
L 163.954223 233.238475 
L 165.040024 238.621504 
L 166.125825 246.562118 
L 167.211627 230.211785 
L 168.297428 237.519157 
L 169.383229 228.727636 
L 170.46903 227.095655 
L 171.554831 224.247999 
L 172.640632 239.531191 
L 173.726434 233.092621 
L 174.812235 236.045158 
L 175.898036 234.001557 
L 176.983837 240.133876 
L 178.069638 234.990578 
L 179.155439 242.166441 
L 180.24124 247.226157 
L 181.327042 242.272377 
L 182.412843 248.57477 
L 183.498644 237.639676 
L 184.584445 241.260375 
L 185.670246 237.122342 
L 186.756047 246.827739 
L 187.841849 232.928293 
L 188.92765 240.492041 
L 190.013451 241.495916 
L 191.099252 237.981579 
L 192.185053 219.057496 
L 193.270854 246.677544 
L 194.356656 238.144436 
L 195.442457 239.949401 
L 196.528258 235.829024 
L 197.614059 233.678864 
L 198.69986 253.653768 
L 200.871462 227.232103 
L 201.957264 229.804251 
L 203.043065 218.130895 
L 204.128866 245.889962 
L 205.214667 237.910124 
L 206.300468 235.081531 
L 207.386269 248.343084 
L 208.472071 222.791044 
L 209.557872 244.788016 
L 210.643673 238.820142 
L 211.729474 229.980887 
L 214.986877 240.400853 
L 216.072679 249.028041 
L 217.15848 239.445844 
L 218.244281 237.276344 
L 219.330082 231.571477 
L 220.415883 230.425543 
L 221.501684 248.482069 
L 222.587486 236.203831 
L 223.673287 241.282515 
L 224.759088 230.943835 
L 225.844889 245.245985 
L 226.93069 247.575694 
L 228.016491 245.131666 
L 229.102292 241.214951 
L 230.188094 251.511213 
L 231.273895 240.643534 
L 232.359696 237.67817 
L 233.445497 233.789005 
L 234.531298 241.458345 
L 235.617099 293.160371 
L 236.702901 293.545861 
L 237.788702 291.437229 
L 238.874503 290.74242 
L 239.960304 290.242458 
L 241.046105 288.134795 
L 245.38931 285.373047 
L 246.475111 285.514131 
L 247.560912 284.228892 
L 248.646713 283.95857 
L 249.732514 283.926526 
L 250.818316 282.985306 
L 251.904117 282.357897 
L 252.989918 282.97555 
L 254.075719 282.762456 
L 255.16152 281.395865 
L 256.247321 280.798101 
L 257.333123 281.249894 
L 258.418924 278.4729 
L 259.504725 278.988366 
L 260.590526 278.665073 
L 261.676327 279.090086 
L 262.762128 276.40337 
L 263.847929 275.777097 
L 264.933731 274.44593 
L 266.019532 274.727567 
L 268.191134 271.384064 
L 269.276935 273.740112 
L 270.362736 271.922715 
L 271.448538 270.407237 
L 272.534339 267.608269 
L 273.62014 270.970553 
L 274.705941 269.809819 
L 275.791742 270.250635 
L 276.877543 267.136158 
L 277.963344 267.115656 
L 279.049146 264.733438 
L 280.134947 266.028625 
L 281.220748 266.623649 
L 282.306549 263.138955 
L 283.39235 271.60896 
L 284.478151 266.383309 
L 285.563953 259.978218 
L 286.649754 267.324199 
L 287.735555 264.612566 
L 288.821356 264.260203 
L 289.907157 264.221258 
L 290.992958 267.876836 
L 292.07876 267.342238 
L 293.164561 258.836688 
L 294.250362 266.248663 
L 295.336163 265.225374 
L 296.421964 268.556281 
L 297.507765 263.932546 
L 298.593566 264.086089 
L 299.679368 264.441491 
L 300.765169 264.429744 
L 301.85097 263.358119 
L 302.936771 263.527085 
L 304.022572 265.960691 
L 305.108373 263.126772 
L 306.194175 258.147985 
L 307.279976 265.622197 
L 308.365777 265.148831 
L 309.451578 264.827243 
L 310.537379 262.932536 
L 311.62318 266.017147 
L 312.708981 262.495819 
L 313.794783 254.210505 
L 314.880584 261.9512 
L 315.966385 260.130939 
L 317.052186 274.826698 
L 318.137987 276.345311 
L 320.30959 276.541372 
L 321.395391 276.998292 
L 322.481192 276.663167 
L 324.652794 276.841331 
L 325.738595 277.068395 
L 326.824396 276.667153 
L 327.910198 277.211479 
L 330.0818 277.389946 
L 331.167601 277.095497 
L 332.253402 277.045699 
L 334.425005 277.177002 
L 335.510806 277.459901 
L 337.682408 277.050937 
L 338.768209 277.6242 
L 339.85401 277.17976 
L 340.939811 277.605266 
L 342.025613 277.200271 
L 344.197215 277.717821 
L 345.283016 277.398538 
L 346.368817 277.714873 
L 347.454618 277.475067 
L 348.54042 277.742855 
L 349.626221 278.179359 
L 350.712022 277.634661 
L 351.797823 277.572876 
L 352.883624 277.87124 
L 353.969425 277.245298 
L 355.055227 277.935359 
L 356.141028 277.825507 
L 357.226829 277.906064 
L 359.398431 277.399915 
L 360.484232 277.633287 
L 361.570033 277.5132 
L 362.655835 277.25258 
L 363.741636 277.637315 
L 364.827437 277.297118 
L 365.913238 277.351498 
L 366.999039 277.553776 
L 369.170642 277.004873 
L 370.256443 277.448829 
L 371.342244 277.646253 
L 372.428045 277.42203 
L 373.513846 277.312439 
L 374.599647 277.808266 
L 375.685448 277.832867 
L 376.77125 277.176266 
L 377.857051 277.249144 
L 378.942852 277.564226 
L 380.028653 277.158691 
L 381.114454 276.926819 
L 382.200255 277.204721 
L 383.286057 276.83071 
L 385.457659 276.644592 
L 386.54346 276.362462 
L 387.629261 276.893312 
L 388.715062 276.466678 
L 389.800863 276.910855 
L 390.886665 276.165031 
L 391.972466 276.618199 
L 394.144068 276.524246 
L 395.229869 276.088514 
L 397.401472 276.42608 
L 398.487273 276.400289 
L 398.487273 276.400289 
" style="fill:none;stroke:#ff0000;stroke-linecap:square;stroke-width:1.5;"/>
   </g>
   <g id="patch_3">
    <path d="M 57.6 307.584 
L 57.6 41.472 
" style="fill:none;stroke:#000000;stroke-linecap:square;stroke-linejoin:miter;stroke-width:0.8;"/>
   </g>
   <g id="patch_4">
    <path d="M 414.72 307.584 
L 414.72 41.472 
" style="fill:none;stroke:#000000;stroke-linecap:square;stroke-linejoin:miter;stroke-width:0.8;"/>
   </g>
   <g id="patch_5">
    <path d="M 57.6 307.584 
L 414.72 307.584 
" style="fill:none;stroke:#000000;stroke-linecap:square;stroke-linejoin:miter;stroke-width:0.8;"/>
   </g>
   <g id="patch_6">
    <path d="M 57.6 41.472 
L 414.72 41.472 
" style="fill:none;stroke:#000000;stroke-linecap:square;stroke-linejoin:miter;stroke-width:0.8;"/>
   </g>
   <g id="text_18">
    <!-- val loss comparsion -->
    <g transform="translate(176.828438 35.472)scale(0.12 -0.12)">
     <defs>
      <path d="M 191 3500 
L 800 3500 
L 1894 563 
L 2988 3500 
L 3597 3500 
L 2284 0 
L 1503 0 
L 191 3500 
z
" id="DejaVuSans-76" transform="scale(0.015625)"/>
      <path d="M 2194 1759 
Q 1497 1759 1228 1600 
Q 959 1441 959 1056 
Q 959 750 1161 570 
Q 1363 391 1709 391 
Q 2188 391 2477 730 
Q 2766 1069 2766 1631 
L 2766 1759 
L 2194 1759 
z
M 3341 1997 
L 3341 0 
L 2766 0 
L 2766 531 
Q 2569 213 2275 61 
Q 1981 -91 1556 -91 
Q 1019 -91 701 211 
Q 384 513 384 1019 
Q 384 1609 779 1909 
Q 1175 2209 1959 2209 
L 2766 2209 
L 2766 2266 
Q 2766 2663 2505 2880 
Q 2244 3097 1772 3097 
Q 1472 3097 1187 3025 
Q 903 2953 641 2809 
L 641 3341 
Q 956 3463 1253 3523 
Q 1550 3584 1831 3584 
Q 2591 3584 2966 3190 
Q 3341 2797 3341 1997 
z
" id="DejaVuSans-61" transform="scale(0.015625)"/>
      <path id="DejaVuSans-20" transform="scale(0.015625)"/>
      <path d="M 3328 2828 
Q 3544 3216 3844 3400 
Q 4144 3584 4550 3584 
Q 5097 3584 5394 3201 
Q 5691 2819 5691 2113 
L 5691 0 
L 5113 0 
L 5113 2094 
Q 5113 2597 4934 2840 
Q 4756 3084 4391 3084 
Q 3944 3084 3684 2787 
Q 3425 2491 3425 1978 
L 3425 0 
L 2847 0 
L 2847 2094 
Q 2847 2600 2669 2842 
Q 2491 3084 2119 3084 
Q 1678 3084 1418 2786 
Q 1159 2488 1159 1978 
L 1159 0 
L 581 0 
L 581 3500 
L 1159 3500 
L 1159 2956 
Q 1356 3278 1631 3431 
Q 1906 3584 2284 3584 
Q 2666 3584 2933 3390 
Q 3200 3197 3328 2828 
z
" id="DejaVuSans-6d" transform="scale(0.015625)"/>
      <path d="M 2631 2963 
Q 2534 3019 2420 3045 
Q 2306 3072 2169 3072 
Q 1681 3072 1420 2755 
Q 1159 2438 1159 1844 
L 1159 0 
L 581 0 
L 581 3500 
L 1159 3500 
L 1159 2956 
Q 1341 3275 1631 3429 
Q 1922 3584 2338 3584 
Q 2397 3584 2469 3576 
Q 2541 3569 2628 3553 
L 2631 2963 
z
" id="DejaVuSans-72" transform="scale(0.015625)"/>
      <path d="M 603 3500 
L 1178 3500 
L 1178 0 
L 603 0 
L 603 3500 
z
M 603 4863 
L 1178 4863 
L 1178 4134 
L 603 4134 
L 603 4863 
z
" id="DejaVuSans-69" transform="scale(0.015625)"/>
      <path d="M 3513 2113 
L 3513 0 
L 2938 0 
L 2938 2094 
Q 2938 2591 2744 2837 
Q 2550 3084 2163 3084 
Q 1697 3084 1428 2787 
Q 1159 2491 1159 1978 
L 1159 0 
L 581 0 
L 581 3500 
L 1159 3500 
L 1159 2956 
Q 1366 3272 1645 3428 
Q 1925 3584 2291 3584 
Q 2894 3584 3203 3211 
Q 3513 2838 3513 2113 
z
" id="DejaVuSans-6e" transform="scale(0.015625)"/>
     </defs>
     <use xlink:href="#DejaVuSans-76"/>
     <use x="59.179688" xlink:href="#DejaVuSans-61"/>
     <use x="120.458984" xlink:href="#DejaVuSans-6c"/>
     <use x="148.242188" xlink:href="#DejaVuSans-20"/>
     <use x="180.029297" xlink:href="#DejaVuSans-6c"/>
     <use x="207.8125" xlink:href="#DejaVuSans-6f"/>
     <use x="268.994141" xlink:href="#DejaVuSans-73"/>
     <use x="321.09375" xlink:href="#DejaVuSans-73"/>
     <use x="373.193359" xlink:href="#DejaVuSans-20"/>
     <use x="404.980469" xlink:href="#DejaVuSans-63"/>
     <use x="459.960938" xlink:href="#DejaVuSans-6f"/>
     <use x="521.142578" xlink:href="#DejaVuSans-6d"/>
     <use x="618.554688" xlink:href="#DejaVuSans-70"/>
     <use x="682.03125" xlink:href="#DejaVuSans-61"/>
     <use x="743.310547" xlink:href="#DejaVuSans-72"/>
     <use x="784.423828" xlink:href="#DejaVuSans-73"/>
     <use x="836.523438" xlink:href="#DejaVuSans-69"/>
     <use x="864.306641" xlink:href="#DejaVuSans-6f"/>
     <use x="925.488281" xlink:href="#DejaVuSans-6e"/>
    </g>
   </g>
   <g id="legend_1">
    <g id="patch_7">
     <path d="M 312.234062 79.106375 
L 407.72 79.106375 
Q 409.72 79.106375 409.72 77.106375 
L 409.72 48.472 
Q 409.72 46.472 407.72 46.472 
L 312.234062 46.472 
Q 310.234062 46.472 310.234062 48.472 
L 310.234062 77.106375 
Q 310.234062 79.106375 312.234062 79.106375 
z
" style="fill:#ffffff;opacity:0.8;stroke:#cccccc;stroke-linejoin:miter;"/>
    </g>
    <g id="line2d_18">
     <path d="M 314.234062 54.570438 
L 334.234062 54.570438 
" style="fill:none;stroke:#000000;stroke-linecap:square;stroke-width:1.5;"/>
    </g>
    <g id="line2d_19"/>
    <g id="text_19">
     <!-- res2net -->
     <g transform="translate(342.234062 58.070438)scale(0.1 -0.1)">
      <defs>
       <path d="M 1172 4494 
L 1172 3500 
L 2356 3500 
L 2356 3053 
L 1172 3053 
L 1172 1153 
Q 1172 725 1289 603 
Q 1406 481 1766 481 
L 2356 481 
L 2356 0 
L 1766 0 
Q 1100 0 847 248 
Q 594 497 594 1153 
L 594 3053 
L 172 3053 
L 172 3500 
L 594 3500 
L 594 4494 
L 1172 4494 
z
" id="DejaVuSans-74" transform="scale(0.015625)"/>
      </defs>
      <use xlink:href="#DejaVuSans-72"/>
      <use x="38.863281" xlink:href="#DejaVuSans-65"/>
      <use x="100.386719" xlink:href="#DejaVuSans-73"/>
      <use x="152.486328" xlink:href="#DejaVuSans-32"/>
      <use x="216.109375" xlink:href="#DejaVuSans-6e"/>
      <use x="279.488281" xlink:href="#DejaVuSans-65"/>
      <use x="341.011719" xlink:href="#DejaVuSans-74"/>
     </g>
    </g>
    <g id="line2d_20">
     <path d="M 314.234062 69.248563 
L 334.234062 69.248563 
" style="fill:none;stroke:#ff0000;stroke-linecap:square;stroke-width:1.5;"/>
    </g>
    <g id="line2d_21"/>
    <g id="text_20">
     <!-- res2net_isda -->
     <g transform="translate(342.234062 72.748563)scale(0.1 -0.1)">
      <defs>
       <path d="M 3263 -1063 
L 3263 -1509 
L -63 -1509 
L -63 -1063 
L 3263 -1063 
z
" id="DejaVuSans-5f" transform="scale(0.015625)"/>
       <path d="M 2906 2969 
L 2906 4863 
L 3481 4863 
L 3481 0 
L 2906 0 
L 2906 525 
Q 2725 213 2448 61 
Q 2172 -91 1784 -91 
Q 1150 -91 751 415 
Q 353 922 353 1747 
Q 353 2572 751 3078 
Q 1150 3584 1784 3584 
Q 2172 3584 2448 3432 
Q 2725 3281 2906 2969 
z
M 947 1747 
Q 947 1113 1208 752 
Q 1469 391 1925 391 
Q 2381 391 2643 752 
Q 2906 1113 2906 1747 
Q 2906 2381 2643 2742 
Q 2381 3103 1925 3103 
Q 1469 3103 1208 2742 
Q 947 2381 947 1747 
z
" id="DejaVuSans-64" transform="scale(0.015625)"/>
      </defs>
      <use xlink:href="#DejaVuSans-72"/>
      <use x="38.863281" xlink:href="#DejaVuSans-65"/>
      <use x="100.386719" xlink:href="#DejaVuSans-73"/>
      <use x="152.486328" xlink:href="#DejaVuSans-32"/>
      <use x="216.109375" xlink:href="#DejaVuSans-6e"/>
      <use x="279.488281" xlink:href="#DejaVuSans-65"/>
      <use x="341.011719" xlink:href="#DejaVuSans-74"/>
      <use x="380.220703" xlink:href="#DejaVuSans-5f"/>
      <use x="430.220703" xlink:href="#DejaVuSans-69"/>
      <use x="458.003906" xlink:href="#DejaVuSans-73"/>
      <use x="510.103516" xlink:href="#DejaVuSans-64"/>
      <use x="573.580078" xlink:href="#DejaVuSans-61"/>
     </g>
    </g>
   </g>
  </g>
 </g>
 <defs>
  <clipPath id="pac0f5acd7d">
   <rect height="266.112" width="357.12" x="57.6" y="41.472"/>
  </clipPath>
 </defs>
</svg>
