<?xml version="1.0" encoding="utf-8" standalone="no"?>
<!DOCTYPE svg PUBLIC "-//W3C//DTD SVG 1.1//EN"
  "http://www.w3.org/Graphics/SVG/1.1/DTD/svg11.dtd">
<svg height="345.6pt" version="1.1" viewBox="0 0 460.8 345.6" width="460.8pt" xmlns="http://www.w3.org/2000/svg" xmlns:xlink="http://www.w3.org/1999/xlink">
 <metadata>
  <rdf:RDF xmlns:cc="http://creativecommons.org/ns#" xmlns:dc="http://purl.org/dc/elements/1.1/" xmlns:rdf="http://www.w3.org/1999/02/22-rdf-syntax-ns#">
   <cc:Work>
    <dc:type rdf:resource="http://purl.org/dc/dcmitype/StillImage"/>
    <dc:date>2023-05-25T11:43:37.559843</dc:date>
    <dc:format>image/svg+xml</dc:format>
    <dc:creator>
     <cc:Agent>
      <dc:title>Matplotlib v3.4.3, https://matplotlib.org/</dc:title>
     </cc:Agent>
    </dc:creator>
   </cc:Work>
  </rdf:RDF>
 </metadata>
 <defs>
  <style type="text/css">*{stroke-linecap:butt;stroke-linejoin:round;}</style>
 </defs>
 <g id="figure_1">
  <g id="patch_1">
   <path d="M 0 345.6 
L 460.8 345.6 
L 460.8 0 
L 0 0 
z
" style="fill:#ffffff;"/>
  </g>
  <g id="axes_1">
   <g id="patch_2">
    <path d="M 57.6 307.584 
L 414.72 307.584 
L 414.72 41.472 
L 57.6 41.472 
z
" style="fill:#ffffff;"/>
   </g>
   <g id="matplotlib.axis_1">
    <g id="xtick_1">
     <g id="line2d_1">
      <defs>
       <path d="M 0 0 
L 0 3.5 
" id="m6157d92a58" style="stroke:#000000;stroke-width:0.8;"/>
      </defs>
      <g>
       <use style="stroke:#000000;stroke-width:0.8;" x="72.746926" xlink:href="#m6157d92a58" y="307.584"/>
      </g>
     </g>
     <g id="text_1">
      <!-- 0 -->
      <g transform="translate(69.565676 322.182437)scale(0.1 -0.1)">
       <defs>
        <path d="M 2034 4250 
Q 1547 4250 1301 3770 
Q 1056 3291 1056 2328 
Q 1056 1369 1301 889 
Q 1547 409 2034 409 
Q 2525 409 2770 889 
Q 3016 1369 3016 2328 
Q 3016 3291 2770 3770 
Q 2525 4250 2034 4250 
z
M 2034 4750 
Q 2819 4750 3233 4129 
Q 3647 3509 3647 2328 
Q 3647 1150 3233 529 
Q 2819 -91 2034 -91 
Q 1250 -91 836 529 
Q 422 1150 422 2328 
Q 422 3509 836 4129 
Q 1250 4750 2034 4750 
z
" id="DejaVuSans-30" transform="scale(0.015625)"/>
       </defs>
       <use xlink:href="#DejaVuSans-30"/>
      </g>
     </g>
    </g>
    <g id="xtick_2">
     <g id="line2d_2">
      <g>
       <use style="stroke:#000000;stroke-width:0.8;" x="127.036984" xlink:href="#m6157d92a58" y="307.584"/>
      </g>
     </g>
     <g id="text_2">
      <!-- 50 -->
      <g transform="translate(120.674484 322.182437)scale(0.1 -0.1)">
       <defs>
        <path d="M 691 4666 
L 3169 4666 
L 3169 4134 
L 1269 4134 
L 1269 2991 
Q 1406 3038 1543 3061 
Q 1681 3084 1819 3084 
Q 2600 3084 3056 2656 
Q 3513 2228 3513 1497 
Q 3513 744 3044 326 
Q 2575 -91 1722 -91 
Q 1428 -91 1123 -41 
Q 819 9 494 109 
L 494 744 
Q 775 591 1075 516 
Q 1375 441 1709 441 
Q 2250 441 2565 725 
Q 2881 1009 2881 1497 
Q 2881 1984 2565 2268 
Q 2250 2553 1709 2553 
Q 1456 2553 1204 2497 
Q 953 2441 691 2322 
L 691 4666 
z
" id="DejaVuSans-35" transform="scale(0.015625)"/>
       </defs>
       <use xlink:href="#DejaVuSans-35"/>
       <use x="63.623047" xlink:href="#DejaVuSans-30"/>
      </g>
     </g>
    </g>
    <g id="xtick_3">
     <g id="line2d_3">
      <g>
       <use style="stroke:#000000;stroke-width:0.8;" x="181.327042" xlink:href="#m6157d92a58" y="307.584"/>
      </g>
     </g>
     <g id="text_3">
      <!-- 100 -->
      <g transform="translate(171.783292 322.182437)scale(0.1 -0.1)">
       <defs>
        <path d="M 794 531 
L 1825 531 
L 1825 4091 
L 703 3866 
L 703 4441 
L 1819 4666 
L 2450 4666 
L 2450 531 
L 3481 531 
L 3481 0 
L 794 0 
L 794 531 
z
" id="DejaVuSans-31" transform="scale(0.015625)"/>
       </defs>
       <use xlink:href="#DejaVuSans-31"/>
       <use x="63.623047" xlink:href="#DejaVuSans-30"/>
       <use x="127.246094" xlink:href="#DejaVuSans-30"/>
      </g>
     </g>
    </g>
    <g id="xtick_4">
     <g id="line2d_4">
      <g>
       <use style="stroke:#000000;stroke-width:0.8;" x="235.617099" xlink:href="#m6157d92a58" y="307.584"/>
      </g>
     </g>
     <g id="text_4">
      <!-- 150 -->
      <g transform="translate(226.073349 322.182437)scale(0.1 -0.1)">
       <use xlink:href="#DejaVuSans-31"/>
       <use x="63.623047" xlink:href="#DejaVuSans-35"/>
       <use x="127.246094" xlink:href="#DejaVuSans-30"/>
      </g>
     </g>
    </g>
    <g id="xtick_5">
     <g id="line2d_5">
      <g>
       <use style="stroke:#000000;stroke-width:0.8;" x="289.907157" xlink:href="#m6157d92a58" y="307.584"/>
      </g>
     </g>
     <g id="text_5">
      <!-- 200 -->
      <g transform="translate(280.363407 322.182437)scale(0.1 -0.1)">
       <defs>
        <path d="M 1228 531 
L 3431 531 
L 3431 0 
L 469 0 
L 469 531 
Q 828 903 1448 1529 
Q 2069 2156 2228 2338 
Q 2531 2678 2651 2914 
Q 2772 3150 2772 3378 
Q 2772 3750 2511 3984 
Q 2250 4219 1831 4219 
Q 1534 4219 1204 4116 
Q 875 4013 500 3803 
L 500 4441 
Q 881 4594 1212 4672 
Q 1544 4750 1819 4750 
Q 2544 4750 2975 4387 
Q 3406 4025 3406 3419 
Q 3406 3131 3298 2873 
Q 3191 2616 2906 2266 
Q 2828 2175 2409 1742 
Q 1991 1309 1228 531 
z
" id="DejaVuSans-32" transform="scale(0.015625)"/>
       </defs>
       <use xlink:href="#DejaVuSans-32"/>
       <use x="63.623047" xlink:href="#DejaVuSans-30"/>
       <use x="127.246094" xlink:href="#DejaVuSans-30"/>
      </g>
     </g>
    </g>
    <g id="xtick_6">
     <g id="line2d_6">
      <g>
       <use style="stroke:#000000;stroke-width:0.8;" x="344.197215" xlink:href="#m6157d92a58" y="307.584"/>
      </g>
     </g>
     <g id="text_6">
      <!-- 250 -->
      <g transform="translate(334.653465 322.182437)scale(0.1 -0.1)">
       <use xlink:href="#DejaVuSans-32"/>
       <use x="63.623047" xlink:href="#DejaVuSans-35"/>
       <use x="127.246094" xlink:href="#DejaVuSans-30"/>
      </g>
     </g>
    </g>
    <g id="xtick_7">
     <g id="line2d_7">
      <g>
       <use style="stroke:#000000;stroke-width:0.8;" x="398.487273" xlink:href="#m6157d92a58" y="307.584"/>
      </g>
     </g>
     <g id="text_7">
      <!-- 300 -->
      <g transform="translate(388.943523 322.182437)scale(0.1 -0.1)">
       <defs>
        <path d="M 2597 2516 
Q 3050 2419 3304 2112 
Q 3559 1806 3559 1356 
Q 3559 666 3084 287 
Q 2609 -91 1734 -91 
Q 1441 -91 1130 -33 
Q 819 25 488 141 
L 488 750 
Q 750 597 1062 519 
Q 1375 441 1716 441 
Q 2309 441 2620 675 
Q 2931 909 2931 1356 
Q 2931 1769 2642 2001 
Q 2353 2234 1838 2234 
L 1294 2234 
L 1294 2753 
L 1863 2753 
Q 2328 2753 2575 2939 
Q 2822 3125 2822 3475 
Q 2822 3834 2567 4026 
Q 2313 4219 1838 4219 
Q 1578 4219 1281 4162 
Q 984 4106 628 3988 
L 628 4550 
Q 988 4650 1302 4700 
Q 1616 4750 1894 4750 
Q 2613 4750 3031 4423 
Q 3450 4097 3450 3541 
Q 3450 3153 3228 2886 
Q 3006 2619 2597 2516 
z
" id="DejaVuSans-33" transform="scale(0.015625)"/>
       </defs>
       <use xlink:href="#DejaVuSans-33"/>
       <use x="63.623047" xlink:href="#DejaVuSans-30"/>
       <use x="127.246094" xlink:href="#DejaVuSans-30"/>
      </g>
     </g>
    </g>
    <g id="text_8">
     <!-- epoch -->
     <g transform="translate(220.931875 335.860562)scale(0.1 -0.1)">
      <defs>
       <path d="M 3597 1894 
L 3597 1613 
L 953 1613 
Q 991 1019 1311 708 
Q 1631 397 2203 397 
Q 2534 397 2845 478 
Q 3156 559 3463 722 
L 3463 178 
Q 3153 47 2828 -22 
Q 2503 -91 2169 -91 
Q 1331 -91 842 396 
Q 353 884 353 1716 
Q 353 2575 817 3079 
Q 1281 3584 2069 3584 
Q 2775 3584 3186 3129 
Q 3597 2675 3597 1894 
z
M 3022 2063 
Q 3016 2534 2758 2815 
Q 2500 3097 2075 3097 
Q 1594 3097 1305 2825 
Q 1016 2553 972 2059 
L 3022 2063 
z
" id="DejaVuSans-65" transform="scale(0.015625)"/>
       <path d="M 1159 525 
L 1159 -1331 
L 581 -1331 
L 581 3500 
L 1159 3500 
L 1159 2969 
Q 1341 3281 1617 3432 
Q 1894 3584 2278 3584 
Q 2916 3584 3314 3078 
Q 3713 2572 3713 1747 
Q 3713 922 3314 415 
Q 2916 -91 2278 -91 
Q 1894 -91 1617 61 
Q 1341 213 1159 525 
z
M 3116 1747 
Q 3116 2381 2855 2742 
Q 2594 3103 2138 3103 
Q 1681 3103 1420 2742 
Q 1159 2381 1159 1747 
Q 1159 1113 1420 752 
Q 1681 391 2138 391 
Q 2594 391 2855 752 
Q 3116 1113 3116 1747 
z
" id="DejaVuSans-70" transform="scale(0.015625)"/>
       <path d="M 1959 3097 
Q 1497 3097 1228 2736 
Q 959 2375 959 1747 
Q 959 1119 1226 758 
Q 1494 397 1959 397 
Q 2419 397 2687 759 
Q 2956 1122 2956 1747 
Q 2956 2369 2687 2733 
Q 2419 3097 1959 3097 
z
M 1959 3584 
Q 2709 3584 3137 3096 
Q 3566 2609 3566 1747 
Q 3566 888 3137 398 
Q 2709 -91 1959 -91 
Q 1206 -91 779 398 
Q 353 888 353 1747 
Q 353 2609 779 3096 
Q 1206 3584 1959 3584 
z
" id="DejaVuSans-6f" transform="scale(0.015625)"/>
       <path d="M 3122 3366 
L 3122 2828 
Q 2878 2963 2633 3030 
Q 2388 3097 2138 3097 
Q 1578 3097 1268 2742 
Q 959 2388 959 1747 
Q 959 1106 1268 751 
Q 1578 397 2138 397 
Q 2388 397 2633 464 
Q 2878 531 3122 666 
L 3122 134 
Q 2881 22 2623 -34 
Q 2366 -91 2075 -91 
Q 1284 -91 818 406 
Q 353 903 353 1747 
Q 353 2603 823 3093 
Q 1294 3584 2113 3584 
Q 2378 3584 2631 3529 
Q 2884 3475 3122 3366 
z
" id="DejaVuSans-63" transform="scale(0.015625)"/>
       <path d="M 3513 2113 
L 3513 0 
L 2938 0 
L 2938 2094 
Q 2938 2591 2744 2837 
Q 2550 3084 2163 3084 
Q 1697 3084 1428 2787 
Q 1159 2491 1159 1978 
L 1159 0 
L 581 0 
L 581 4863 
L 1159 4863 
L 1159 2956 
Q 1366 3272 1645 3428 
Q 1925 3584 2291 3584 
Q 2894 3584 3203 3211 
Q 3513 2838 3513 2113 
z
" id="DejaVuSans-68" transform="scale(0.015625)"/>
      </defs>
      <use xlink:href="#DejaVuSans-65"/>
      <use x="61.523438" xlink:href="#DejaVuSans-70"/>
      <use x="125" xlink:href="#DejaVuSans-6f"/>
      <use x="186.181641" xlink:href="#DejaVuSans-63"/>
      <use x="241.162109" xlink:href="#DejaVuSans-68"/>
     </g>
    </g>
   </g>
   <g id="matplotlib.axis_2">
    <g id="ytick_1">
     <g id="line2d_8">
      <defs>
       <path d="M 0 0 
L -3.5 0 
" id="mf809e8006b" style="stroke:#000000;stroke-width:0.8;"/>
      </defs>
      <g>
       <use style="stroke:#000000;stroke-width:0.8;" x="57.6" xlink:href="#mf809e8006b" y="278.200924"/>
      </g>
     </g>
     <g id="text_9">
      <!-- 1.0 -->
      <g transform="translate(34.696875 282.000143)scale(0.1 -0.1)">
       <defs>
        <path d="M 684 794 
L 1344 794 
L 1344 0 
L 684 0 
L 684 794 
z
" id="DejaVuSans-2e" transform="scale(0.015625)"/>
       </defs>
       <use xlink:href="#DejaVuSans-31"/>
       <use x="63.623047" xlink:href="#DejaVuSans-2e"/>
       <use x="95.410156" xlink:href="#DejaVuSans-30"/>
      </g>
     </g>
    </g>
    <g id="ytick_2">
     <g id="line2d_9">
      <g>
       <use style="stroke:#000000;stroke-width:0.8;" x="57.6" xlink:href="#mf809e8006b" y="242.846732"/>
      </g>
     </g>
     <g id="text_10">
      <!-- 1.5 -->
      <g transform="translate(34.696875 246.645951)scale(0.1 -0.1)">
       <use xlink:href="#DejaVuSans-31"/>
       <use x="63.623047" xlink:href="#DejaVuSans-2e"/>
       <use x="95.410156" xlink:href="#DejaVuSans-35"/>
      </g>
     </g>
    </g>
    <g id="ytick_3">
     <g id="line2d_10">
      <g>
       <use style="stroke:#000000;stroke-width:0.8;" x="57.6" xlink:href="#mf809e8006b" y="207.49254"/>
      </g>
     </g>
     <g id="text_11">
      <!-- 2.0 -->
      <g transform="translate(34.696875 211.291759)scale(0.1 -0.1)">
       <use xlink:href="#DejaVuSans-32"/>
       <use x="63.623047" xlink:href="#DejaVuSans-2e"/>
       <use x="95.410156" xlink:href="#DejaVuSans-30"/>
      </g>
     </g>
    </g>
    <g id="ytick_4">
     <g id="line2d_11">
      <g>
       <use style="stroke:#000000;stroke-width:0.8;" x="57.6" xlink:href="#mf809e8006b" y="172.138348"/>
      </g>
     </g>
     <g id="text_12">
      <!-- 2.5 -->
      <g transform="translate(34.696875 175.937567)scale(0.1 -0.1)">
       <use xlink:href="#DejaVuSans-32"/>
       <use x="63.623047" xlink:href="#DejaVuSans-2e"/>
       <use x="95.410156" xlink:href="#DejaVuSans-35"/>
      </g>
     </g>
    </g>
    <g id="ytick_5">
     <g id="line2d_12">
      <g>
       <use style="stroke:#000000;stroke-width:0.8;" x="57.6" xlink:href="#mf809e8006b" y="136.784156"/>
      </g>
     </g>
     <g id="text_13">
      <!-- 3.0 -->
      <g transform="translate(34.696875 140.583374)scale(0.1 -0.1)">
       <use xlink:href="#DejaVuSans-33"/>
       <use x="63.623047" xlink:href="#DejaVuSans-2e"/>
       <use x="95.410156" xlink:href="#DejaVuSans-30"/>
      </g>
     </g>
    </g>
    <g id="ytick_6">
     <g id="line2d_13">
      <g>
       <use style="stroke:#000000;stroke-width:0.8;" x="57.6" xlink:href="#mf809e8006b" y="101.429963"/>
      </g>
     </g>
     <g id="text_14">
      <!-- 3.5 -->
      <g transform="translate(34.696875 105.229182)scale(0.1 -0.1)">
       <use xlink:href="#DejaVuSans-33"/>
       <use x="63.623047" xlink:href="#DejaVuSans-2e"/>
       <use x="95.410156" xlink:href="#DejaVuSans-35"/>
      </g>
     </g>
    </g>
    <g id="ytick_7">
     <g id="line2d_14">
      <g>
       <use style="stroke:#000000;stroke-width:0.8;" x="57.6" xlink:href="#mf809e8006b" y="66.075771"/>
      </g>
     </g>
     <g id="text_15">
      <!-- 4.0 -->
      <g transform="translate(34.696875 69.87499)scale(0.1 -0.1)">
       <defs>
        <path d="M 2419 4116 
L 825 1625 
L 2419 1625 
L 2419 4116 
z
M 2253 4666 
L 3047 4666 
L 3047 1625 
L 3713 1625 
L 3713 1100 
L 3047 1100 
L 3047 0 
L 2419 0 
L 2419 1100 
L 313 1100 
L 313 1709 
L 2253 4666 
z
" id="DejaVuSans-34" transform="scale(0.015625)"/>
       </defs>
       <use xlink:href="#DejaVuSans-34"/>
       <use x="63.623047" xlink:href="#DejaVuSans-2e"/>
       <use x="95.410156" xlink:href="#DejaVuSans-30"/>
      </g>
     </g>
    </g>
    <g id="text_16">
     <!-- loss -->
     <g transform="translate(28.617188 184.185812)rotate(-90)scale(0.1 -0.1)">
      <defs>
       <path d="M 603 4863 
L 1178 4863 
L 1178 0 
L 603 0 
L 603 4863 
z
" id="DejaVuSans-6c" transform="scale(0.015625)"/>
       <path d="M 2834 3397 
L 2834 2853 
Q 2591 2978 2328 3040 
Q 2066 3103 1784 3103 
Q 1356 3103 1142 2972 
Q 928 2841 928 2578 
Q 928 2378 1081 2264 
Q 1234 2150 1697 2047 
L 1894 2003 
Q 2506 1872 2764 1633 
Q 3022 1394 3022 966 
Q 3022 478 2636 193 
Q 2250 -91 1575 -91 
Q 1294 -91 989 -36 
Q 684 19 347 128 
L 347 722 
Q 666 556 975 473 
Q 1284 391 1588 391 
Q 1994 391 2212 530 
Q 2431 669 2431 922 
Q 2431 1156 2273 1281 
Q 2116 1406 1581 1522 
L 1381 1569 
Q 847 1681 609 1914 
Q 372 2147 372 2553 
Q 372 3047 722 3315 
Q 1072 3584 1716 3584 
Q 2034 3584 2315 3537 
Q 2597 3491 2834 3397 
z
" id="DejaVuSans-73" transform="scale(0.015625)"/>
      </defs>
      <use xlink:href="#DejaVuSans-6c"/>
      <use x="27.783203" xlink:href="#DejaVuSans-6f"/>
      <use x="88.964844" xlink:href="#DejaVuSans-73"/>
      <use x="141.064453" xlink:href="#DejaVuSans-73"/>
     </g>
    </g>
   </g>
   <g id="line2d_15">
    <path clip-path="url(#pf774091382)" d="M 73.832727 57.968649 
L 74.918528 87.094391 
L 76.00433 104.472981 
L 77.090131 143.687817 
L 78.175932 157.750224 
L 79.261733 81.776814 
L 80.347534 187.895571 
L 81.433335 193.763072 
L 82.519137 207.016801 
L 83.604938 181.550328 
L 84.690739 203.966092 
L 85.77654 211.515627 
L 86.862341 206.502249 
L 87.948142 220.968418 
L 89.033943 206.305162 
L 90.119745 211.24787 
L 91.205546 200.869023 
L 92.291347 232.863379 
L 93.377148 231.551636 
L 94.462949 224.808341 
L 95.54875 236.223706 
L 96.634552 213.755271 
L 97.720353 233.728467 
L 98.806154 225.023882 
L 99.891955 222.596462 
L 100.977756 230.466926 
L 102.063557 237.245596 
L 103.149358 222.169585 
L 104.23516 228.4308 
L 105.320961 239.540016 
L 106.406762 228.610783 
L 107.492563 232.847779 
L 108.578364 243.04458 
L 109.664165 231.702401 
L 110.749967 236.35447 
L 111.835768 213.837621 
L 112.921569 231.094713 
L 114.00737 236.329933 
L 115.093171 226.752913 
L 116.178972 249.463495 
L 117.264773 217.190171 
L 118.350575 206.161172 
L 119.436376 243.322055 
L 120.522177 236.144886 
L 121.607978 225.229925 
L 122.693779 236.349433 
L 123.77958 211.027977 
L 124.865382 244.601964 
L 125.951183 230.113924 
L 127.036984 223.122001 
L 128.122785 226.724915 
L 129.208586 233.921004 
L 130.294387 227.769687 
L 131.380189 225.903974 
L 132.46599 202.838593 
L 133.551791 222.136049 
L 134.637592 212.786385 
L 135.723393 217.258487 
L 136.809194 219.780461 
L 137.894995 227.077598 
L 138.980797 223.019953 
L 141.152399 235.456076 
L 142.2382 224.431268 
L 143.324001 230.90689 
L 144.409802 239.387449 
L 145.495604 235.573844 
L 146.581405 230.215637 
L 147.667206 234.512925 
L 148.753007 232.94219 
L 149.838808 221.353017 
L 150.924609 229.182622 
L 152.01041 249.136402 
L 153.096212 249.606958 
L 154.182013 224.055063 
L 155.267814 214.098412 
L 156.353615 223.117248 
L 157.439416 239.163823 
L 158.525217 236.273665 
L 159.611019 215.889274 
L 160.69682 232.619025 
L 161.782621 231.909708 
L 162.868422 223.960057 
L 163.954223 237.265306 
L 165.040024 221.923505 
L 166.125825 227.978619 
L 167.211627 229.520932 
L 168.297428 230.406111 
L 170.46903 244.151078 
L 171.554831 215.142425 
L 172.640632 235.863448 
L 173.726434 206.759495 
L 174.812235 234.950787 
L 175.898036 239.710112 
L 176.983837 231.804653 
L 178.069638 242.894923 
L 179.155439 234.901103 
L 180.24124 242.857715 
L 181.327042 221.794942 
L 182.412843 240.94567 
L 183.498644 198.012466 
L 184.584445 222.779269 
L 185.670246 237.394575 
L 186.756047 219.292895 
L 187.841849 235.816853 
L 188.92765 243.528267 
L 190.013451 240.358518 
L 191.099252 233.894707 
L 192.185053 248.98553 
L 193.270854 241.850352 
L 194.356656 245.283521 
L 195.442457 231.360927 
L 196.528258 231.331661 
L 197.614059 191.380667 
L 198.69986 241.566635 
L 199.785661 251.503352 
L 200.871462 241.173638 
L 201.957264 240.928883 
L 203.043065 231.835963 
L 204.128866 234.271261 
L 205.214667 240.886341 
L 206.300468 230.177817 
L 207.386269 240.468404 
L 208.472071 228.808643 
L 209.557872 228.242329 
L 210.643673 231.093487 
L 211.729474 243.684619 
L 212.815275 225.651146 
L 213.901076 243.056862 
L 214.986877 220.375743 
L 216.072679 242.234247 
L 217.15848 235.397442 
L 218.244281 239.503511 
L 219.330082 218.246635 
L 220.415883 241.724199 
L 221.501684 237.585587 
L 222.587486 238.646802 
L 223.673287 227.515771 
L 224.759088 225.826807 
L 225.844889 213.720071 
L 226.93069 224.144085 
L 228.016491 230.542435 
L 229.102292 232.068111 
L 230.188094 241.300769 
L 231.273895 239.781793 
L 232.359696 242.146035 
L 233.445497 245.126324 
L 234.531298 232.773563 
L 235.617099 293.500807 
L 236.702901 293.127625 
L 237.788702 293.134356 
L 238.874503 291.771279 
L 239.960304 290.901519 
L 241.046105 290.296749 
L 242.131906 289.246799 
L 243.217708 288.633647 
L 244.303509 288.187489 
L 245.38931 286.725461 
L 246.475111 287.359286 
L 247.560912 286.585553 
L 249.732514 286.660156 
L 250.818316 285.925646 
L 251.904117 284.861788 
L 252.989918 285.523357 
L 254.075719 285.685195 
L 255.16152 285.581599 
L 256.247321 285.105569 
L 257.333123 282.470404 
L 258.418924 284.580563 
L 259.504725 283.758671 
L 260.590526 283.642672 
L 261.676327 283.047545 
L 262.762128 283.590531 
L 263.847929 282.653604 
L 264.933731 280.080325 
L 266.019532 281.398265 
L 267.105333 278.719453 
L 268.191134 277.868384 
L 270.362736 275.247638 
L 271.448538 274.936013 
L 272.534339 276.522199 
L 273.62014 275.988735 
L 274.705941 275.116375 
L 275.791742 272.803398 
L 276.877543 270.821397 
L 277.963344 270.912615 
L 279.049146 272.73527 
L 281.220748 269.862164 
L 282.306549 265.557513 
L 283.39235 263.045645 
L 284.478151 267.277912 
L 285.563953 260.624671 
L 286.649754 267.240062 
L 287.735555 262.069077 
L 288.821356 268.264662 
L 289.907157 264.995821 
L 290.992958 267.262024 
L 293.164561 263.080217 
L 294.250362 265.19306 
L 296.421964 261.123092 
L 297.507765 264.599336 
L 298.593566 264.221485 
L 299.679368 254.124737 
L 300.765169 262.938196 
L 301.85097 259.445791 
L 302.936771 258.059534 
L 304.022572 262.251393 
L 305.108373 259.763004 
L 306.194175 256.301481 
L 307.279976 260.103406 
L 308.365777 263.242647 
L 309.451578 255.387159 
L 310.537379 254.697342 
L 311.62318 264.372457 
L 312.708981 259.975915 
L 313.794783 262.382992 
L 314.880584 262.690546 
L 315.966385 263.384169 
L 317.052186 279.50595 
L 318.137987 280.1515 
L 319.223788 279.878804 
L 320.30959 279.977951 
L 321.395391 279.862611 
L 323.566993 279.979925 
L 324.652794 279.892879 
L 325.738595 280.467566 
L 326.824396 279.781547 
L 327.910198 280.07075 
L 328.995999 279.98656 
L 330.0818 280.148365 
L 331.167601 280.462867 
L 332.253402 279.974246 
L 334.425005 280.478279 
L 335.510806 280.115244 
L 336.596607 280.511752 
L 337.682408 280.49479 
L 339.85401 280.878835 
L 342.025613 280.711269 
L 344.197215 281.063119 
L 345.283016 280.830294 
L 346.368817 280.851659 
L 347.454618 281.2023 
L 350.712022 281.172736 
L 352.883624 280.84812 
L 353.969425 281.169509 
L 355.055227 280.991782 
L 356.141028 281.09433 
L 357.226829 281.580115 
L 360.484232 281.658339 
L 361.570033 281.254385 
L 363.741636 281.896053 
L 364.827437 282.160089 
L 365.913238 282.089662 
L 366.999039 282.142127 
L 368.08484 282.324274 
L 369.170642 282.043315 
L 372.428045 282.473412 
L 373.513846 282.294752 
L 374.599647 282.478172 
L 375.685448 282.485069 
L 378.942852 282.851437 
L 380.028653 282.711347 
L 383.286057 282.60167 
L 384.371858 283.044831 
L 385.457659 282.795399 
L 386.54346 283.032412 
L 387.629261 282.726243 
L 388.715062 283.078191 
L 389.800863 282.755089 
L 391.972466 283.087062 
L 393.058267 282.968804 
L 395.229869 282.947019 
L 397.401472 283.286805 
L 398.487273 283.340463 
L 398.487273 283.340463 
" style="fill:none;stroke:#000000;stroke-linecap:square;stroke-width:1.5;"/>
   </g>
   <g id="line2d_16">
    <path clip-path="url(#pf774091382)" d="M 73.832727 53.568 
L 74.918528 85.192175 
L 77.090131 133.841354 
L 78.175932 140.422863 
L 79.261733 155.940808 
L 81.433335 194.769635 
L 82.519137 167.277186 
L 83.604938 205.377051 
L 84.690739 194.896591 
L 85.77654 215.22628 
L 86.862341 222.230016 
L 87.948142 210.876198 
L 89.033943 218.115749 
L 90.119745 218.314471 
L 91.205546 213.081652 
L 92.291347 213.326772 
L 93.377148 230.576778 
L 94.462949 216.534155 
L 95.54875 224.178264 
L 96.634552 219.639932 
L 97.720353 223.175204 
L 98.806154 232.788337 
L 99.891955 225.811068 
L 100.977756 237.955452 
L 102.063557 236.438447 
L 103.149358 240.260082 
L 104.23516 238.424436 
L 105.320961 223.475705 
L 106.406762 224.234532 
L 107.492563 226.061031 
L 108.578364 229.397037 
L 109.664165 223.227525 
L 110.749967 240.375379 
L 111.835768 223.678904 
L 112.921569 226.316049 
L 115.093171 240.280908 
L 116.178972 215.835505 
L 117.264773 231.39689 
L 118.350575 245.328676 
L 119.436376 238.787797 
L 120.522177 223.267865 
L 121.607978 231.328301 
L 122.693779 236.987579 
L 123.77958 237.166747 
L 124.865382 224.906753 
L 125.951183 239.780694 
L 127.036984 228.242037 
L 128.122785 209.436547 
L 129.208586 238.35278 
L 130.294387 236.5143 
L 131.380189 206.151653 
L 132.46599 236.280644 
L 133.551791 227.388919 
L 134.637592 233.725446 
L 135.723393 242.724114 
L 136.809194 239.016915 
L 137.894995 241.907448 
L 138.980797 213.42545 
L 140.066598 224.804206 
L 141.152399 201.468453 
L 142.2382 230.156664 
L 143.324001 237.592223 
L 144.409802 249.754568 
L 145.495604 241.485285 
L 146.581405 204.971121 
L 147.667206 247.591588 
L 148.753007 229.59605 
L 149.838808 240.01364 
L 150.924609 239.718669 
L 152.01041 233.406827 
L 153.096212 220.318276 
L 154.182013 240.154411 
L 155.267814 214.86744 
L 156.353615 236.443583 
L 157.439416 249.646642 
L 158.525217 227.457903 
L 159.611019 224.733726 
L 160.69682 220.986677 
L 161.782621 227.203741 
L 162.868422 245.859281 
L 163.954223 237.994401 
L 165.040024 233.93815 
L 166.125825 236.322516 
L 167.211627 228.355583 
L 168.297428 210.18554 
L 169.383229 234.405722 
L 170.46903 233.738201 
L 171.554831 230.12813 
L 172.640632 238.287883 
L 173.726434 234.788436 
L 174.812235 241.032848 
L 175.898036 239.79783 
L 176.983837 219.207406 
L 178.069638 236.186558 
L 179.155439 228.870397 
L 180.24124 236.774407 
L 181.327042 243.373387 
L 182.412843 235.343004 
L 183.498644 244.693989 
L 184.584445 232.778456 
L 185.670246 230.170081 
L 186.756047 192.292773 
L 187.841849 236.914184 
L 188.92765 219.509912 
L 190.013451 213.692073 
L 191.099252 231.484689 
L 192.185053 205.860124 
L 193.270854 232.624139 
L 194.356656 192.9156 
L 195.442457 229.702924 
L 196.528258 247.924531 
L 198.69986 235.19256 
L 199.785661 236.905732 
L 200.871462 235.773055 
L 201.957264 240.554155 
L 203.043065 235.301578 
L 204.128866 225.624791 
L 205.214667 241.395563 
L 206.300468 231.55136 
L 207.386269 205.790774 
L 208.472071 236.842325 
L 209.557872 237.359955 
L 210.643673 251.57997 
L 211.729474 220.929502 
L 212.815275 215.063435 
L 213.901076 241.688447 
L 214.986877 239.226318 
L 216.072679 234.47463 
L 217.15848 246.608132 
L 218.244281 238.774774 
L 219.330082 232.661727 
L 220.415883 245.0191 
L 221.501684 223.711702 
L 222.587486 241.018367 
L 223.673287 240.943625 
L 224.759088 238.231702 
L 225.844889 223.553842 
L 226.93069 234.545114 
L 228.016491 248.726546 
L 230.188094 218.335017 
L 231.273895 244.429349 
L 232.359696 237.724624 
L 233.445497 220.535924 
L 234.531298 238.856721 
L 235.617099 295.042158 
L 236.702901 295.488 
L 237.788702 294.84237 
L 238.874503 294.356556 
L 239.960304 294.198419 
L 241.046105 292.774824 
L 243.217708 291.878699 
L 244.303509 291.136662 
L 245.38931 291.546613 
L 246.475111 290.605167 
L 247.560912 290.530424 
L 249.732514 289.99117 
L 250.818316 290.250227 
L 251.904117 289.549026 
L 252.989918 288.055035 
L 254.075719 288.91053 
L 255.16152 289.148336 
L 256.247321 288.692013 
L 257.333123 289.158254 
L 258.418924 287.385351 
L 259.504725 287.335326 
L 260.590526 286.52413 
L 261.676327 286.689542 
L 262.762128 287.658885 
L 263.847929 286.464387 
L 264.933731 285.002949 
L 266.019532 286.713769 
L 267.105333 284.216836 
L 268.191134 285.15547 
L 269.276935 283.782724 
L 270.362736 281.865389 
L 271.448538 278.167081 
L 272.534339 281.418027 
L 273.62014 276.988661 
L 274.705941 274.582117 
L 275.791742 277.283419 
L 276.877543 274.632278 
L 277.963344 275.781973 
L 279.049146 274.789941 
L 280.134947 275.10543 
L 281.220748 274.37246 
L 282.306549 275.753585 
L 283.39235 274.17386 
L 284.478151 270.612909 
L 285.563953 275.467784 
L 286.649754 274.293824 
L 287.735555 271.504895 
L 288.821356 270.888017 
L 289.907157 267.136845 
L 290.992958 271.931444 
L 292.07876 274.876 
L 293.164561 274.719721 
L 294.250362 272.141875 
L 295.336163 270.519424 
L 296.421964 271.823027 
L 298.593566 273.880926 
L 299.679368 269.206959 
L 300.765169 270.858247 
L 301.85097 269.264663 
L 302.936771 266.773982 
L 304.022572 266.608892 
L 305.108373 275.58562 
L 306.194175 264.627105 
L 307.279976 273.053955 
L 308.365777 268.916182 
L 309.451578 269.160321 
L 310.537379 262.564841 
L 311.62318 273.218101 
L 312.708981 269.089865 
L 313.794783 272.814155 
L 314.880584 270.086095 
L 315.966385 265.214989 
L 317.052186 287.011071 
L 318.137987 287.496598 
L 319.223788 288.565196 
L 321.395391 289.255691 
L 325.738595 289.614653 
L 326.824396 289.488662 
L 328.995999 289.924764 
L 330.0818 289.566692 
L 331.167601 290.286894 
L 332.253402 289.791224 
L 333.339203 289.758284 
L 334.425005 290.03857 
L 336.596607 289.966614 
L 337.682408 290.363186 
L 338.768209 290.04451 
L 339.85401 289.991449 
L 340.939811 290.339839 
L 343.111414 290.287129 
L 344.197215 290.10461 
L 345.283016 290.45929 
L 347.454618 290.159006 
L 351.797823 290.694852 
L 352.883624 290.430735 
L 355.055227 290.51155 
L 356.141028 290.400001 
L 357.226829 290.638142 
L 358.31263 290.454712 
L 359.398431 290.600705 
L 360.484232 290.138033 
L 361.570033 290.426309 
L 362.655835 290.577075 
L 364.827437 290.277982 
L 366.999039 290.39409 
L 369.170642 290.184727 
L 370.256443 290.259472 
L 371.342244 289.88447 
L 372.428045 290.237824 
L 373.513846 290.076011 
L 374.599647 290.465408 
L 375.685448 290.146614 
L 376.77125 289.948843 
L 377.857051 290.274361 
L 378.942852 289.651509 
L 380.028653 290.106856 
L 381.114454 289.73917 
L 382.200255 289.913052 
L 383.286057 289.78517 
L 384.371858 290.05396 
L 387.629261 289.907903 
L 388.715062 289.711166 
L 391.972466 289.719763 
L 393.058267 289.509486 
L 394.144068 289.728156 
L 395.229869 289.785935 
L 396.31567 289.386985 
L 398.487273 289.309182 
L 398.487273 289.309182 
" style="fill:none;stroke:#ff0000;stroke-linecap:square;stroke-width:1.5;"/>
   </g>
   <g id="patch_3">
    <path d="M 57.6 307.584 
L 57.6 41.472 
" style="fill:none;stroke:#000000;stroke-linecap:square;stroke-linejoin:miter;stroke-width:0.8;"/>
   </g>
   <g id="patch_4">
    <path d="M 414.72 307.584 
L 414.72 41.472 
" style="fill:none;stroke:#000000;stroke-linecap:square;stroke-linejoin:miter;stroke-width:0.8;"/>
   </g>
   <g id="patch_5">
    <path d="M 57.6 307.584 
L 414.72 307.584 
" style="fill:none;stroke:#000000;stroke-linecap:square;stroke-linejoin:miter;stroke-width:0.8;"/>
   </g>
   <g id="patch_6">
    <path d="M 57.6 41.472 
L 414.72 41.472 
" style="fill:none;stroke:#000000;stroke-linecap:square;stroke-linejoin:miter;stroke-width:0.8;"/>
   </g>
   <g id="text_17">
    <!-- val loss comparsion -->
    <g transform="translate(176.828438 35.472)scale(0.12 -0.12)">
     <defs>
      <path d="M 191 3500 
L 800 3500 
L 1894 563 
L 2988 3500 
L 3597 3500 
L 2284 0 
L 1503 0 
L 191 3500 
z
" id="DejaVuSans-76" transform="scale(0.015625)"/>
      <path d="M 2194 1759 
Q 1497 1759 1228 1600 
Q 959 1441 959 1056 
Q 959 750 1161 570 
Q 1363 391 1709 391 
Q 2188 391 2477 730 
Q 2766 1069 2766 1631 
L 2766 1759 
L 2194 1759 
z
M 3341 1997 
L 3341 0 
L 2766 0 
L 2766 531 
Q 2569 213 2275 61 
Q 1981 -91 1556 -91 
Q 1019 -91 701 211 
Q 384 513 384 1019 
Q 384 1609 779 1909 
Q 1175 2209 1959 2209 
L 2766 2209 
L 2766 2266 
Q 2766 2663 2505 2880 
Q 2244 3097 1772 3097 
Q 1472 3097 1187 3025 
Q 903 2953 641 2809 
L 641 3341 
Q 956 3463 1253 3523 
Q 1550 3584 1831 3584 
Q 2591 3584 2966 3190 
Q 3341 2797 3341 1997 
z
" id="DejaVuSans-61" transform="scale(0.015625)"/>
      <path id="DejaVuSans-20" transform="scale(0.015625)"/>
      <path d="M 3328 2828 
Q 3544 3216 3844 3400 
Q 4144 3584 4550 3584 
Q 5097 3584 5394 3201 
Q 5691 2819 5691 2113 
L 5691 0 
L 5113 0 
L 5113 2094 
Q 5113 2597 4934 2840 
Q 4756 3084 4391 3084 
Q 3944 3084 3684 2787 
Q 3425 2491 3425 1978 
L 3425 0 
L 2847 0 
L 2847 2094 
Q 2847 2600 2669 2842 
Q 2491 3084 2119 3084 
Q 1678 3084 1418 2786 
Q 1159 2488 1159 1978 
L 1159 0 
L 581 0 
L 581 3500 
L 1159 3500 
L 1159 2956 
Q 1356 3278 1631 3431 
Q 1906 3584 2284 3584 
Q 2666 3584 2933 3390 
Q 3200 3197 3328 2828 
z
" id="DejaVuSans-6d" transform="scale(0.015625)"/>
      <path d="M 2631 2963 
Q 2534 3019 2420 3045 
Q 2306 3072 2169 3072 
Q 1681 3072 1420 2755 
Q 1159 2438 1159 1844 
L 1159 0 
L 581 0 
L 581 3500 
L 1159 3500 
L 1159 2956 
Q 1341 3275 1631 3429 
Q 1922 3584 2338 3584 
Q 2397 3584 2469 3576 
Q 2541 3569 2628 3553 
L 2631 2963 
z
" id="DejaVuSans-72" transform="scale(0.015625)"/>
      <path d="M 603 3500 
L 1178 3500 
L 1178 0 
L 603 0 
L 603 3500 
z
M 603 4863 
L 1178 4863 
L 1178 4134 
L 603 4134 
L 603 4863 
z
" id="DejaVuSans-69" transform="scale(0.015625)"/>
      <path d="M 3513 2113 
L 3513 0 
L 2938 0 
L 2938 2094 
Q 2938 2591 2744 2837 
Q 2550 3084 2163 3084 
Q 1697 3084 1428 2787 
Q 1159 2491 1159 1978 
L 1159 0 
L 581 0 
L 581 3500 
L 1159 3500 
L 1159 2956 
Q 1366 3272 1645 3428 
Q 1925 3584 2291 3584 
Q 2894 3584 3203 3211 
Q 3513 2838 3513 2113 
z
" id="DejaVuSans-6e" transform="scale(0.015625)"/>
     </defs>
     <use xlink:href="#DejaVuSans-76"/>
     <use x="59.179688" xlink:href="#DejaVuSans-61"/>
     <use x="120.458984" xlink:href="#DejaVuSans-6c"/>
     <use x="148.242188" xlink:href="#DejaVuSans-20"/>
     <use x="180.029297" xlink:href="#DejaVuSans-6c"/>
     <use x="207.8125" xlink:href="#DejaVuSans-6f"/>
     <use x="268.994141" xlink:href="#DejaVuSans-73"/>
     <use x="321.09375" xlink:href="#DejaVuSans-73"/>
     <use x="373.193359" xlink:href="#DejaVuSans-20"/>
     <use x="404.980469" xlink:href="#DejaVuSans-63"/>
     <use x="459.960938" xlink:href="#DejaVuSans-6f"/>
     <use x="521.142578" xlink:href="#DejaVuSans-6d"/>
     <use x="618.554688" xlink:href="#DejaVuSans-70"/>
     <use x="682.03125" xlink:href="#DejaVuSans-61"/>
     <use x="743.310547" xlink:href="#DejaVuSans-72"/>
     <use x="784.423828" xlink:href="#DejaVuSans-73"/>
     <use x="836.523438" xlink:href="#DejaVuSans-69"/>
     <use x="864.306641" xlink:href="#DejaVuSans-6f"/>
     <use x="925.488281" xlink:href="#DejaVuSans-6e"/>
    </g>
   </g>
   <g id="legend_1">
    <g id="patch_7">
     <path d="M 312.234062 79.106375 
L 407.72 79.106375 
Q 409.72 79.106375 409.72 77.106375 
L 409.72 48.472 
Q 409.72 46.472 407.72 46.472 
L 312.234062 46.472 
Q 310.234062 46.472 310.234062 48.472 
L 310.234062 77.106375 
Q 310.234062 79.106375 312.234062 79.106375 
z
" style="fill:#ffffff;opacity:0.8;stroke:#cccccc;stroke-linejoin:miter;"/>
    </g>
    <g id="line2d_17">
     <path d="M 314.234062 54.570438 
L 334.234062 54.570438 
" style="fill:none;stroke:#000000;stroke-linecap:square;stroke-width:1.5;"/>
    </g>
    <g id="line2d_18"/>
    <g id="text_18">
     <!-- res2net -->
     <g transform="translate(342.234062 58.070438)scale(0.1 -0.1)">
      <defs>
       <path d="M 1172 4494 
L 1172 3500 
L 2356 3500 
L 2356 3053 
L 1172 3053 
L 1172 1153 
Q 1172 725 1289 603 
Q 1406 481 1766 481 
L 2356 481 
L 2356 0 
L 1766 0 
Q 1100 0 847 248 
Q 594 497 594 1153 
L 594 3053 
L 172 3053 
L 172 3500 
L 594 3500 
L 594 4494 
L 1172 4494 
z
" id="DejaVuSans-74" transform="scale(0.015625)"/>
      </defs>
      <use xlink:href="#DejaVuSans-72"/>
      <use x="38.863281" xlink:href="#DejaVuSans-65"/>
      <use x="100.386719" xlink:href="#DejaVuSans-73"/>
      <use x="152.486328" xlink:href="#DejaVuSans-32"/>
      <use x="216.109375" xlink:href="#DejaVuSans-6e"/>
      <use x="279.488281" xlink:href="#DejaVuSans-65"/>
      <use x="341.011719" xlink:href="#DejaVuSans-74"/>
     </g>
    </g>
    <g id="line2d_19">
     <path d="M 314.234062 69.248563 
L 334.234062 69.248563 
" style="fill:none;stroke:#ff0000;stroke-linecap:square;stroke-width:1.5;"/>
    </g>
    <g id="line2d_20"/>
    <g id="text_19">
     <!-- res2net_isda -->
     <g transform="translate(342.234062 72.748563)scale(0.1 -0.1)">
      <defs>
       <path d="M 3263 -1063 
L 3263 -1509 
L -63 -1509 
L -63 -1063 
L 3263 -1063 
z
" id="DejaVuSans-5f" transform="scale(0.015625)"/>
       <path d="M 2906 2969 
L 2906 4863 
L 3481 4863 
L 3481 0 
L 2906 0 
L 2906 525 
Q 2725 213 2448 61 
Q 2172 -91 1784 -91 
Q 1150 -91 751 415 
Q 353 922 353 1747 
Q 353 2572 751 3078 
Q 1150 3584 1784 3584 
Q 2172 3584 2448 3432 
Q 2725 3281 2906 2969 
z
M 947 1747 
Q 947 1113 1208 752 
Q 1469 391 1925 391 
Q 2381 391 2643 752 
Q 2906 1113 2906 1747 
Q 2906 2381 2643 2742 
Q 2381 3103 1925 3103 
Q 1469 3103 1208 2742 
Q 947 2381 947 1747 
z
" id="DejaVuSans-64" transform="scale(0.015625)"/>
      </defs>
      <use xlink:href="#DejaVuSans-72"/>
      <use x="38.863281" xlink:href="#DejaVuSans-65"/>
      <use x="100.386719" xlink:href="#DejaVuSans-73"/>
      <use x="152.486328" xlink:href="#DejaVuSans-32"/>
      <use x="216.109375" xlink:href="#DejaVuSans-6e"/>
      <use x="279.488281" xlink:href="#DejaVuSans-65"/>
      <use x="341.011719" xlink:href="#DejaVuSans-74"/>
      <use x="380.220703" xlink:href="#DejaVuSans-5f"/>
      <use x="430.220703" xlink:href="#DejaVuSans-69"/>
      <use x="458.003906" xlink:href="#DejaVuSans-73"/>
      <use x="510.103516" xlink:href="#DejaVuSans-64"/>
      <use x="573.580078" xlink:href="#DejaVuSans-61"/>
     </g>
    </g>
   </g>
  </g>
 </g>
 <defs>
  <clipPath id="pf774091382">
   <rect height="266.112" width="357.12" x="57.6" y="41.472"/>
  </clipPath>
 </defs>
</svg>
