<?xml version="1.0" encoding="utf-8" standalone="no"?>
<!DOCTYPE svg PUBLIC "-//W3C//DTD SVG 1.1//EN"
  "http://www.w3.org/Graphics/SVG/1.1/DTD/svg11.dtd">
<svg height="345.6pt" version="1.1" viewBox="0 0 460.8 345.6" width="460.8pt" xmlns="http://www.w3.org/2000/svg" xmlns:xlink="http://www.w3.org/1999/xlink">
 <metadata>
  <rdf:RDF xmlns:cc="http://creativecommons.org/ns#" xmlns:dc="http://purl.org/dc/elements/1.1/" xmlns:rdf="http://www.w3.org/1999/02/22-rdf-syntax-ns#">
   <cc:Work>
    <dc:type rdf:resource="http://purl.org/dc/dcmitype/StillImage"/>
    <dc:date>2023-05-25T11:43:37.884192</dc:date>
    <dc:format>image/svg+xml</dc:format>
    <dc:creator>
     <cc:Agent>
      <dc:title>Matplotlib v3.4.3, https://matplotlib.org/</dc:title>
     </cc:Agent>
    </dc:creator>
   </cc:Work>
  </rdf:RDF>
 </metadata>
 <defs>
  <style type="text/css">*{stroke-linecap:butt;stroke-linejoin:round;}</style>
 </defs>
 <g id="figure_1">
  <g id="patch_1">
   <path d="M 0 345.6 
L 460.8 345.6 
L 460.8 0 
L 0 0 
z
" style="fill:#ffffff;"/>
  </g>
  <g id="axes_1">
   <g id="patch_2">
    <path d="M 57.6 307.584 
L 414.72 307.584 
L 414.72 41.472 
L 57.6 41.472 
z
" style="fill:#ffffff;"/>
   </g>
   <g id="matplotlib.axis_1">
    <g id="xtick_1">
     <g id="line2d_1">
      <defs>
       <path d="M 0 0 
L 0 3.5 
" id="mf9e12ab86b" style="stroke:#000000;stroke-width:0.8;"/>
      </defs>
      <g>
       <use style="stroke:#000000;stroke-width:0.8;" x="72.746926" xlink:href="#mf9e12ab86b" y="307.584"/>
      </g>
     </g>
     <g id="text_1">
      <!-- 0 -->
      <g transform="translate(69.565676 322.182437)scale(0.1 -0.1)">
       <defs>
        <path d="M 2034 4250 
Q 1547 4250 1301 3770 
Q 1056 3291 1056 2328 
Q 1056 1369 1301 889 
Q 1547 409 2034 409 
Q 2525 409 2770 889 
Q 3016 1369 3016 2328 
Q 3016 3291 2770 3770 
Q 2525 4250 2034 4250 
z
M 2034 4750 
Q 2819 4750 3233 4129 
Q 3647 3509 3647 2328 
Q 3647 1150 3233 529 
Q 2819 -91 2034 -91 
Q 1250 -91 836 529 
Q 422 1150 422 2328 
Q 422 3509 836 4129 
Q 1250 4750 2034 4750 
z
" id="DejaVuSans-30" transform="scale(0.015625)"/>
       </defs>
       <use xlink:href="#DejaVuSans-30"/>
      </g>
     </g>
    </g>
    <g id="xtick_2">
     <g id="line2d_2">
      <g>
       <use style="stroke:#000000;stroke-width:0.8;" x="127.036984" xlink:href="#mf9e12ab86b" y="307.584"/>
      </g>
     </g>
     <g id="text_2">
      <!-- 50 -->
      <g transform="translate(120.674484 322.182437)scale(0.1 -0.1)">
       <defs>
        <path d="M 691 4666 
L 3169 4666 
L 3169 4134 
L 1269 4134 
L 1269 2991 
Q 1406 3038 1543 3061 
Q 1681 3084 1819 3084 
Q 2600 3084 3056 2656 
Q 3513 2228 3513 1497 
Q 3513 744 3044 326 
Q 2575 -91 1722 -91 
Q 1428 -91 1123 -41 
Q 819 9 494 109 
L 494 744 
Q 775 591 1075 516 
Q 1375 441 1709 441 
Q 2250 441 2565 725 
Q 2881 1009 2881 1497 
Q 2881 1984 2565 2268 
Q 2250 2553 1709 2553 
Q 1456 2553 1204 2497 
Q 953 2441 691 2322 
L 691 4666 
z
" id="DejaVuSans-35" transform="scale(0.015625)"/>
       </defs>
       <use xlink:href="#DejaVuSans-35"/>
       <use x="63.623047" xlink:href="#DejaVuSans-30"/>
      </g>
     </g>
    </g>
    <g id="xtick_3">
     <g id="line2d_3">
      <g>
       <use style="stroke:#000000;stroke-width:0.8;" x="181.327042" xlink:href="#mf9e12ab86b" y="307.584"/>
      </g>
     </g>
     <g id="text_3">
      <!-- 100 -->
      <g transform="translate(171.783292 322.182437)scale(0.1 -0.1)">
       <defs>
        <path d="M 794 531 
L 1825 531 
L 1825 4091 
L 703 3866 
L 703 4441 
L 1819 4666 
L 2450 4666 
L 2450 531 
L 3481 531 
L 3481 0 
L 794 0 
L 794 531 
z
" id="DejaVuSans-31" transform="scale(0.015625)"/>
       </defs>
       <use xlink:href="#DejaVuSans-31"/>
       <use x="63.623047" xlink:href="#DejaVuSans-30"/>
       <use x="127.246094" xlink:href="#DejaVuSans-30"/>
      </g>
     </g>
    </g>
    <g id="xtick_4">
     <g id="line2d_4">
      <g>
       <use style="stroke:#000000;stroke-width:0.8;" x="235.617099" xlink:href="#mf9e12ab86b" y="307.584"/>
      </g>
     </g>
     <g id="text_4">
      <!-- 150 -->
      <g transform="translate(226.073349 322.182437)scale(0.1 -0.1)">
       <use xlink:href="#DejaVuSans-31"/>
       <use x="63.623047" xlink:href="#DejaVuSans-35"/>
       <use x="127.246094" xlink:href="#DejaVuSans-30"/>
      </g>
     </g>
    </g>
    <g id="xtick_5">
     <g id="line2d_5">
      <g>
       <use style="stroke:#000000;stroke-width:0.8;" x="289.907157" xlink:href="#mf9e12ab86b" y="307.584"/>
      </g>
     </g>
     <g id="text_5">
      <!-- 200 -->
      <g transform="translate(280.363407 322.182437)scale(0.1 -0.1)">
       <defs>
        <path d="M 1228 531 
L 3431 531 
L 3431 0 
L 469 0 
L 469 531 
Q 828 903 1448 1529 
Q 2069 2156 2228 2338 
Q 2531 2678 2651 2914 
Q 2772 3150 2772 3378 
Q 2772 3750 2511 3984 
Q 2250 4219 1831 4219 
Q 1534 4219 1204 4116 
Q 875 4013 500 3803 
L 500 4441 
Q 881 4594 1212 4672 
Q 1544 4750 1819 4750 
Q 2544 4750 2975 4387 
Q 3406 4025 3406 3419 
Q 3406 3131 3298 2873 
Q 3191 2616 2906 2266 
Q 2828 2175 2409 1742 
Q 1991 1309 1228 531 
z
" id="DejaVuSans-32" transform="scale(0.015625)"/>
       </defs>
       <use xlink:href="#DejaVuSans-32"/>
       <use x="63.623047" xlink:href="#DejaVuSans-30"/>
       <use x="127.246094" xlink:href="#DejaVuSans-30"/>
      </g>
     </g>
    </g>
    <g id="xtick_6">
     <g id="line2d_6">
      <g>
       <use style="stroke:#000000;stroke-width:0.8;" x="344.197215" xlink:href="#mf9e12ab86b" y="307.584"/>
      </g>
     </g>
     <g id="text_6">
      <!-- 250 -->
      <g transform="translate(334.653465 322.182437)scale(0.1 -0.1)">
       <use xlink:href="#DejaVuSans-32"/>
       <use x="63.623047" xlink:href="#DejaVuSans-35"/>
       <use x="127.246094" xlink:href="#DejaVuSans-30"/>
      </g>
     </g>
    </g>
    <g id="xtick_7">
     <g id="line2d_7">
      <g>
       <use style="stroke:#000000;stroke-width:0.8;" x="398.487273" xlink:href="#mf9e12ab86b" y="307.584"/>
      </g>
     </g>
     <g id="text_7">
      <!-- 300 -->
      <g transform="translate(388.943523 322.182437)scale(0.1 -0.1)">
       <defs>
        <path d="M 2597 2516 
Q 3050 2419 3304 2112 
Q 3559 1806 3559 1356 
Q 3559 666 3084 287 
Q 2609 -91 1734 -91 
Q 1441 -91 1130 -33 
Q 819 25 488 141 
L 488 750 
Q 750 597 1062 519 
Q 1375 441 1716 441 
Q 2309 441 2620 675 
Q 2931 909 2931 1356 
Q 2931 1769 2642 2001 
Q 2353 2234 1838 2234 
L 1294 2234 
L 1294 2753 
L 1863 2753 
Q 2328 2753 2575 2939 
Q 2822 3125 2822 3475 
Q 2822 3834 2567 4026 
Q 2313 4219 1838 4219 
Q 1578 4219 1281 4162 
Q 984 4106 628 3988 
L 628 4550 
Q 988 4650 1302 4700 
Q 1616 4750 1894 4750 
Q 2613 4750 3031 4423 
Q 3450 4097 3450 3541 
Q 3450 3153 3228 2886 
Q 3006 2619 2597 2516 
z
" id="DejaVuSans-33" transform="scale(0.015625)"/>
       </defs>
       <use xlink:href="#DejaVuSans-33"/>
       <use x="63.623047" xlink:href="#DejaVuSans-30"/>
       <use x="127.246094" xlink:href="#DejaVuSans-30"/>
      </g>
     </g>
    </g>
    <g id="text_8">
     <!-- epoch -->
     <g transform="translate(220.931875 335.860562)scale(0.1 -0.1)">
      <defs>
       <path d="M 3597 1894 
L 3597 1613 
L 953 1613 
Q 991 1019 1311 708 
Q 1631 397 2203 397 
Q 2534 397 2845 478 
Q 3156 559 3463 722 
L 3463 178 
Q 3153 47 2828 -22 
Q 2503 -91 2169 -91 
Q 1331 -91 842 396 
Q 353 884 353 1716 
Q 353 2575 817 3079 
Q 1281 3584 2069 3584 
Q 2775 3584 3186 3129 
Q 3597 2675 3597 1894 
z
M 3022 2063 
Q 3016 2534 2758 2815 
Q 2500 3097 2075 3097 
Q 1594 3097 1305 2825 
Q 1016 2553 972 2059 
L 3022 2063 
z
" id="DejaVuSans-65" transform="scale(0.015625)"/>
       <path d="M 1159 525 
L 1159 -1331 
L 581 -1331 
L 581 3500 
L 1159 3500 
L 1159 2969 
Q 1341 3281 1617 3432 
Q 1894 3584 2278 3584 
Q 2916 3584 3314 3078 
Q 3713 2572 3713 1747 
Q 3713 922 3314 415 
Q 2916 -91 2278 -91 
Q 1894 -91 1617 61 
Q 1341 213 1159 525 
z
M 3116 1747 
Q 3116 2381 2855 2742 
Q 2594 3103 2138 3103 
Q 1681 3103 1420 2742 
Q 1159 2381 1159 1747 
Q 1159 1113 1420 752 
Q 1681 391 2138 391 
Q 2594 391 2855 752 
Q 3116 1113 3116 1747 
z
" id="DejaVuSans-70" transform="scale(0.015625)"/>
       <path d="M 1959 3097 
Q 1497 3097 1228 2736 
Q 959 2375 959 1747 
Q 959 1119 1226 758 
Q 1494 397 1959 397 
Q 2419 397 2687 759 
Q 2956 1122 2956 1747 
Q 2956 2369 2687 2733 
Q 2419 3097 1959 3097 
z
M 1959 3584 
Q 2709 3584 3137 3096 
Q 3566 2609 3566 1747 
Q 3566 888 3137 398 
Q 2709 -91 1959 -91 
Q 1206 -91 779 398 
Q 353 888 353 1747 
Q 353 2609 779 3096 
Q 1206 3584 1959 3584 
z
" id="DejaVuSans-6f" transform="scale(0.015625)"/>
       <path d="M 3122 3366 
L 3122 2828 
Q 2878 2963 2633 3030 
Q 2388 3097 2138 3097 
Q 1578 3097 1268 2742 
Q 959 2388 959 1747 
Q 959 1106 1268 751 
Q 1578 397 2138 397 
Q 2388 397 2633 464 
Q 2878 531 3122 666 
L 3122 134 
Q 2881 22 2623 -34 
Q 2366 -91 2075 -91 
Q 1284 -91 818 406 
Q 353 903 353 1747 
Q 353 2603 823 3093 
Q 1294 3584 2113 3584 
Q 2378 3584 2631 3529 
Q 2884 3475 3122 3366 
z
" id="DejaVuSans-63" transform="scale(0.015625)"/>
       <path d="M 3513 2113 
L 3513 0 
L 2938 0 
L 2938 2094 
Q 2938 2591 2744 2837 
Q 2550 3084 2163 3084 
Q 1697 3084 1428 2787 
Q 1159 2491 1159 1978 
L 1159 0 
L 581 0 
L 581 4863 
L 1159 4863 
L 1159 2956 
Q 1366 3272 1645 3428 
Q 1925 3584 2291 3584 
Q 2894 3584 3203 3211 
Q 3513 2838 3513 2113 
z
" id="DejaVuSans-68" transform="scale(0.015625)"/>
      </defs>
      <use xlink:href="#DejaVuSans-65"/>
      <use x="61.523438" xlink:href="#DejaVuSans-70"/>
      <use x="125" xlink:href="#DejaVuSans-6f"/>
      <use x="186.181641" xlink:href="#DejaVuSans-63"/>
      <use x="241.162109" xlink:href="#DejaVuSans-68"/>
     </g>
    </g>
   </g>
   <g id="matplotlib.axis_2">
    <g id="ytick_1">
     <g id="line2d_8">
      <defs>
       <path d="M 0 0 
L -3.5 0 
" id="m05f39acf6d" style="stroke:#000000;stroke-width:0.8;"/>
      </defs>
      <g>
       <use style="stroke:#000000;stroke-width:0.8;" x="57.6" xlink:href="#m05f39acf6d" y="303.257063"/>
      </g>
     </g>
     <g id="text_9">
      <!-- 0 -->
      <g transform="translate(44.2375 307.056282)scale(0.1 -0.1)">
       <use xlink:href="#DejaVuSans-30"/>
      </g>
     </g>
    </g>
    <g id="ytick_2">
     <g id="line2d_9">
      <g>
       <use style="stroke:#000000;stroke-width:0.8;" x="57.6" xlink:href="#m05f39acf6d" y="272.427447"/>
      </g>
     </g>
     <g id="text_10">
      <!-- 10 -->
      <g transform="translate(37.875 276.226666)scale(0.1 -0.1)">
       <use xlink:href="#DejaVuSans-31"/>
       <use x="63.623047" xlink:href="#DejaVuSans-30"/>
      </g>
     </g>
    </g>
    <g id="ytick_3">
     <g id="line2d_10">
      <g>
       <use style="stroke:#000000;stroke-width:0.8;" x="57.6" xlink:href="#m05f39acf6d" y="241.597831"/>
      </g>
     </g>
     <g id="text_11">
      <!-- 20 -->
      <g transform="translate(37.875 245.397049)scale(0.1 -0.1)">
       <use xlink:href="#DejaVuSans-32"/>
       <use x="63.623047" xlink:href="#DejaVuSans-30"/>
      </g>
     </g>
    </g>
    <g id="ytick_4">
     <g id="line2d_11">
      <g>
       <use style="stroke:#000000;stroke-width:0.8;" x="57.6" xlink:href="#m05f39acf6d" y="210.768214"/>
      </g>
     </g>
     <g id="text_12">
      <!-- 30 -->
      <g transform="translate(37.875 214.567433)scale(0.1 -0.1)">
       <use xlink:href="#DejaVuSans-33"/>
       <use x="63.623047" xlink:href="#DejaVuSans-30"/>
      </g>
     </g>
    </g>
    <g id="ytick_5">
     <g id="line2d_12">
      <g>
       <use style="stroke:#000000;stroke-width:0.8;" x="57.6" xlink:href="#m05f39acf6d" y="179.938598"/>
      </g>
     </g>
     <g id="text_13">
      <!-- 40 -->
      <g transform="translate(37.875 183.737816)scale(0.1 -0.1)">
       <defs>
        <path d="M 2419 4116 
L 825 1625 
L 2419 1625 
L 2419 4116 
z
M 2253 4666 
L 3047 4666 
L 3047 1625 
L 3713 1625 
L 3713 1100 
L 3047 1100 
L 3047 0 
L 2419 0 
L 2419 1100 
L 313 1100 
L 313 1709 
L 2253 4666 
z
" id="DejaVuSans-34" transform="scale(0.015625)"/>
       </defs>
       <use xlink:href="#DejaVuSans-34"/>
       <use x="63.623047" xlink:href="#DejaVuSans-30"/>
      </g>
     </g>
    </g>
    <g id="ytick_6">
     <g id="line2d_13">
      <g>
       <use style="stroke:#000000;stroke-width:0.8;" x="57.6" xlink:href="#m05f39acf6d" y="149.108981"/>
      </g>
     </g>
     <g id="text_14">
      <!-- 50 -->
      <g transform="translate(37.875 152.9082)scale(0.1 -0.1)">
       <use xlink:href="#DejaVuSans-35"/>
       <use x="63.623047" xlink:href="#DejaVuSans-30"/>
      </g>
     </g>
    </g>
    <g id="ytick_7">
     <g id="line2d_14">
      <g>
       <use style="stroke:#000000;stroke-width:0.8;" x="57.6" xlink:href="#m05f39acf6d" y="118.279365"/>
      </g>
     </g>
     <g id="text_15">
      <!-- 60 -->
      <g transform="translate(37.875 122.078584)scale(0.1 -0.1)">
       <defs>
        <path d="M 2113 2584 
Q 1688 2584 1439 2293 
Q 1191 2003 1191 1497 
Q 1191 994 1439 701 
Q 1688 409 2113 409 
Q 2538 409 2786 701 
Q 3034 994 3034 1497 
Q 3034 2003 2786 2293 
Q 2538 2584 2113 2584 
z
M 3366 4563 
L 3366 3988 
Q 3128 4100 2886 4159 
Q 2644 4219 2406 4219 
Q 1781 4219 1451 3797 
Q 1122 3375 1075 2522 
Q 1259 2794 1537 2939 
Q 1816 3084 2150 3084 
Q 2853 3084 3261 2657 
Q 3669 2231 3669 1497 
Q 3669 778 3244 343 
Q 2819 -91 2113 -91 
Q 1303 -91 875 529 
Q 447 1150 447 2328 
Q 447 3434 972 4092 
Q 1497 4750 2381 4750 
Q 2619 4750 2861 4703 
Q 3103 4656 3366 4563 
z
" id="DejaVuSans-36" transform="scale(0.015625)"/>
       </defs>
       <use xlink:href="#DejaVuSans-36"/>
       <use x="63.623047" xlink:href="#DejaVuSans-30"/>
      </g>
     </g>
    </g>
    <g id="ytick_8">
     <g id="line2d_15">
      <g>
       <use style="stroke:#000000;stroke-width:0.8;" x="57.6" xlink:href="#m05f39acf6d" y="87.449748"/>
      </g>
     </g>
     <g id="text_16">
      <!-- 70 -->
      <g transform="translate(37.875 91.248967)scale(0.1 -0.1)">
       <defs>
        <path d="M 525 4666 
L 3525 4666 
L 3525 4397 
L 1831 0 
L 1172 0 
L 2766 4134 
L 525 4134 
L 525 4666 
z
" id="DejaVuSans-37" transform="scale(0.015625)"/>
       </defs>
       <use xlink:href="#DejaVuSans-37"/>
       <use x="63.623047" xlink:href="#DejaVuSans-30"/>
      </g>
     </g>
    </g>
    <g id="ytick_9">
     <g id="line2d_16">
      <g>
       <use style="stroke:#000000;stroke-width:0.8;" x="57.6" xlink:href="#m05f39acf6d" y="56.620132"/>
      </g>
     </g>
     <g id="text_17">
      <!-- 80 -->
      <g transform="translate(37.875 60.419351)scale(0.1 -0.1)">
       <defs>
        <path d="M 2034 2216 
Q 1584 2216 1326 1975 
Q 1069 1734 1069 1313 
Q 1069 891 1326 650 
Q 1584 409 2034 409 
Q 2484 409 2743 651 
Q 3003 894 3003 1313 
Q 3003 1734 2745 1975 
Q 2488 2216 2034 2216 
z
M 1403 2484 
Q 997 2584 770 2862 
Q 544 3141 544 3541 
Q 544 4100 942 4425 
Q 1341 4750 2034 4750 
Q 2731 4750 3128 4425 
Q 3525 4100 3525 3541 
Q 3525 3141 3298 2862 
Q 3072 2584 2669 2484 
Q 3125 2378 3379 2068 
Q 3634 1759 3634 1313 
Q 3634 634 3220 271 
Q 2806 -91 2034 -91 
Q 1263 -91 848 271 
Q 434 634 434 1313 
Q 434 1759 690 2068 
Q 947 2378 1403 2484 
z
M 1172 3481 
Q 1172 3119 1398 2916 
Q 1625 2713 2034 2713 
Q 2441 2713 2670 2916 
Q 2900 3119 2900 3481 
Q 2900 3844 2670 4047 
Q 2441 4250 2034 4250 
Q 1625 4250 1398 4047 
Q 1172 3844 1172 3481 
z
" id="DejaVuSans-38" transform="scale(0.015625)"/>
       </defs>
       <use xlink:href="#DejaVuSans-38"/>
       <use x="63.623047" xlink:href="#DejaVuSans-30"/>
      </g>
     </g>
    </g>
    <g id="text_18">
     <!-- acc -->
     <g transform="translate(31.795313 183.0905)rotate(-90)scale(0.1 -0.1)">
      <defs>
       <path d="M 2194 1759 
Q 1497 1759 1228 1600 
Q 959 1441 959 1056 
Q 959 750 1161 570 
Q 1363 391 1709 391 
Q 2188 391 2477 730 
Q 2766 1069 2766 1631 
L 2766 1759 
L 2194 1759 
z
M 3341 1997 
L 3341 0 
L 2766 0 
L 2766 531 
Q 2569 213 2275 61 
Q 1981 -91 1556 -91 
Q 1019 -91 701 211 
Q 384 513 384 1019 
Q 384 1609 779 1909 
Q 1175 2209 1959 2209 
L 2766 2209 
L 2766 2266 
Q 2766 2663 2505 2880 
Q 2244 3097 1772 3097 
Q 1472 3097 1187 3025 
Q 903 2953 641 2809 
L 641 3341 
Q 956 3463 1253 3523 
Q 1550 3584 1831 3584 
Q 2591 3584 2966 3190 
Q 3341 2797 3341 1997 
z
" id="DejaVuSans-61" transform="scale(0.015625)"/>
      </defs>
      <use xlink:href="#DejaVuSans-61"/>
      <use x="61.279297" xlink:href="#DejaVuSans-63"/>
      <use x="116.259766" xlink:href="#DejaVuSans-63"/>
     </g>
    </g>
   </g>
   <g id="line2d_17">
    <path clip-path="url(#p1046fa3203)" d="M 73.832727 295.488 
L 74.918528 281.491354 
L 76.00433 261.297955 
L 77.090131 235.709374 
L 78.175932 213.820346 
L 79.261733 205.003076 
L 81.433335 165.479508 
L 82.519137 149.663914 
L 83.604938 152.931854 
L 84.690739 143.467161 
L 85.77654 146.210997 
L 86.862341 127.805716 
L 89.033943 139.212674 
L 90.119745 142.449784 
L 91.205546 127.713227 
L 92.291347 133.848321 
L 93.377148 119.173424 
L 94.462949 127.158294 
L 95.54875 137.239579 
L 96.634552 125.154369 
L 97.720353 126.264236 
L 98.806154 124.846073 
L 99.891955 115.997973 
L 100.977756 123.150444 
L 102.063557 113.284967 
L 103.149358 120.098312 
L 104.23516 126.110087 
L 105.320961 130.981167 
L 106.406762 119.019276 
L 107.492563 120.776564 
L 108.578364 119.389231 
L 109.664165 120.838223 
L 110.749967 117.539454 
L 111.835768 124.722755 
L 112.921569 125.12354 
L 114.00737 110.386983 
L 115.093171 130.76536 
L 116.178972 132.923433 
L 117.264773 117.07701 
L 118.350575 121.269838 
L 119.436376 106.718259 
L 120.522177 116.182951 
L 121.607978 118.587661 
L 122.693779 121.639793 
L 123.77958 123.982844 
L 124.865382 131.073656 
L 125.951183 129.563004 
L 127.036984 125.678473 
L 129.208586 128.792264 
L 130.294387 114.055707 
L 131.380189 128.206501 
L 132.46599 126.017599 
L 134.637592 114.394833 
L 135.723393 122.441363 
L 136.809194 112.791693 
L 137.894995 117.107839 
L 138.980797 119.543379 
L 140.066598 121.547304 
L 141.152399 133.725003 
L 142.2382 115.44304 
L 143.324001 117.292817 
L 144.409802 114.209855 
L 145.495604 122.688 
L 146.581405 119.080935 
L 147.667206 125.832621 
L 148.753007 129.624664 
L 149.838808 116.24461 
L 150.924609 113.06916 
L 152.01041 136.530498 
L 153.096212 112.668375 
L 154.182013 115.566359 
L 155.267814 115.967144 
L 156.353615 120.838223 
L 157.439416 112.575886 
L 158.525217 105.485074 
L 159.611019 124.630266 
L 160.69682 111.096064 
L 161.782621 115.073085 
L 162.868422 116.090462 
L 163.954223 113.0075 
L 165.040024 105.145948 
L 166.125825 109.986198 
L 167.211627 113.901559 
L 168.297428 110.109517 
L 169.383229 113.192478 
L 170.46903 109.215458 
L 171.554831 115.535529 
L 172.640632 112.23676 
L 173.726434 114.888107 
L 174.812235 129.717153 
L 175.898036 122.133067 
L 176.983837 108.383058 
L 178.069638 121.11569 
L 179.155439 121.578134 
L 180.24124 109.80122 
L 181.327042 109.523754 
L 182.412843 122.379704 
L 183.498644 115.011426 
L 184.584445 135.297313 
L 185.670246 107.643147 
L 186.756047 114.857277 
L 187.841849 107.643147 
L 188.92765 119.913335 
L 190.013451 117.539454 
L 191.099252 108.660525 
L 192.185053 114.148196 
L 193.270854 104.467697 
L 194.356656 110.60279 
L 195.442457 108.105591 
L 196.528258 109.184628 
L 197.614059 118.125217 
L 198.69986 114.179026 
L 199.785661 120.653245 
L 200.871462 116.367929 
L 201.957264 122.842148 
L 203.043065 122.133067 
L 204.128866 113.994048 
L 205.214667 111.126894 
L 206.300468 119.358401 
L 207.386269 106.59494 
L 208.472071 115.196403 
L 209.557872 115.843825 
L 210.643673 116.892032 
L 211.729474 109.986198 
L 212.815275 122.194726 
L 213.901076 119.574209 
L 214.986877 111.126894 
L 216.072679 120.714905 
L 217.15848 117.724432 
L 218.244281 112.452567 
L 219.330082 111.250212 
L 220.415883 113.377456 
L 221.501684 107.119044 
L 222.587486 122.379704 
L 223.673287 117.200328 
L 224.759088 118.803468 
L 225.844889 110.880257 
L 226.93069 114.055707 
L 228.016491 110.171176 
L 229.102292 108.753013 
L 230.188094 118.865128 
L 231.273895 116.182951 
L 232.359696 109.338776 
L 233.445497 118.032728 
L 234.531298 107.458169 
L 235.617099 58.716546 
L 236.702901 57.57585 
L 237.788702 56.712621 
L 238.874503 55.633584 
L 239.960304 56.435154 
L 241.046105 56.496814 
L 242.131906 56.77428 
L 243.217708 56.404325 
L 244.303509 57.637509 
L 245.38931 56.77428 
L 246.475111 56.835939 
L 247.560912 56.373495 
L 248.646713 57.729998 
L 249.732514 56.219347 
L 250.818316 55.20197 
L 251.904117 56.435154 
L 252.989918 55.571925 
L 254.075719 55.016992 
L 255.16152 55.787732 
L 256.247321 56.897599 
L 257.333123 56.650962 
L 258.418924 57.205895 
L 259.504725 55.664414 
L 260.590526 55.818562 
L 261.676327 56.712621 
L 262.762128 57.113406 
L 263.847929 58.469909 
L 264.933731 59.086501 
L 266.019532 58.778205 
L 267.105333 60.412175 
L 268.191134 62.261952 
L 269.276935 61.244574 
L 270.362736 62.601078 
L 271.448538 62.323611 
L 272.534339 64.666662 
L 273.62014 62.354441 
L 274.705941 63.556796 
L 275.791742 66.331461 
L 276.877543 64.080899 
L 277.963344 66.023165 
L 279.049146 69.260275 
L 280.134947 67.410498 
L 281.220748 72.06577 
L 282.306549 68.273727 
L 283.39235 78.108375 
L 284.478151 73.113977 
L 285.563953 69.352764 
L 286.649754 69.260275 
L 288.821356 79.526537 
L 289.907157 73.66891 
L 290.992958 71.757474 
L 292.07876 71.079222 
L 293.164561 73.052318 
L 295.336163 73.69974 
L 296.421964 73.453103 
L 297.507765 74.162184 
L 298.593566 78.108375 
L 299.679368 72.928999 
L 300.765169 73.545591 
L 301.85097 71.110052 
L 302.936771 74.932924 
L 304.022572 81.838758 
L 305.108373 70.894244 
L 306.194175 70.801756 
L 307.279976 73.946376 
L 308.365777 82.301202 
L 309.451578 76.90602 
L 310.537379 73.853888 
L 311.62318 73.237295 
L 312.708981 77.64593 
L 313.794783 73.63808 
L 314.880584 76.84436 
L 315.966385 75.395368 
L 317.052186 58.994012 
L 318.137987 57.945806 
L 319.223788 57.452532 
L 320.30959 57.421702 
L 321.395391 57.051747 
L 322.481192 56.959258 
L 323.566993 57.051747 
L 324.652794 56.157688 
L 325.738595 56.77428 
L 326.824396 56.866769 
L 327.910198 57.545021 
L 328.995999 56.681791 
L 330.0818 56.00354 
L 331.167601 56.096029 
L 332.253402 56.034369 
L 333.339203 55.356118 
L 335.510806 55.818562 
L 336.596607 55.756903 
L 337.682408 55.417777 
L 338.768209 55.20197 
L 339.85401 55.20197 
L 340.939811 54.862844 
L 342.025613 55.20197 
L 344.197215 55.417777 
L 345.283016 54.246252 
L 346.368817 55.294459 
L 347.454618 55.417777 
L 348.54042 55.016992 
L 349.626221 55.078651 
L 350.712022 55.016992 
L 351.797823 54.431229 
L 352.883624 55.109481 
L 353.969425 54.832014 
L 355.055227 55.016992 
L 356.141028 54.739525 
L 357.226829 54.708696 
L 358.31263 55.078651 
L 361.570033 54.246252 
L 362.655835 54.616207 
L 363.741636 54.462059 
L 364.827437 54.554548 
L 365.913238 55.078651 
L 368.08484 54.677866 
L 370.256443 54.277081 
L 371.342244 54.307911 
L 372.428045 54.092103 
L 373.513846 54.677866 
L 375.685448 54.215422 
L 376.77125 54.307911 
L 377.857051 54.554548 
L 378.942852 54.33874 
L 380.028653 53.876296 
L 381.114454 54.462059 
L 382.200255 53.752978 
L 383.286057 54.36957 
L 384.371858 54.523718 
L 385.457659 54.030444 
L 386.54346 54.122933 
L 387.629261 53.968785 
L 388.715062 53.568 
L 389.800863 54.030444 
L 390.886665 54.153763 
L 393.058267 53.660489 
L 394.144068 54.277081 
L 395.229869 53.907126 
L 397.401472 53.752978 
L 398.487273 53.876296 
L 398.487273 53.876296 
" style="fill:none;stroke:#000000;stroke-linecap:square;stroke-width:1.5;"/>
   </g>
   <g id="line2d_18">
    <path clip-path="url(#p1046fa3203)" d="M 73.832727 294.71726 
L 74.918528 278.038437 
L 76.00433 249.983486 
L 77.090131 225.073156 
L 78.175932 190.081541 
L 79.261733 188.57089 
L 80.347534 162.828161 
L 81.433335 174.327607 
L 82.519137 158.357866 
L 83.604938 145.16279 
L 84.690739 156.631408 
L 85.77654 140.969963 
L 86.862341 147.197545 
L 87.948142 128.514798 
L 89.033943 149.972211 
L 90.119745 133.725003 
L 91.205546 135.358972 
L 92.291347 129.316368 
L 93.377148 139.921756 
L 94.462949 142.141488 
L 95.54875 125.89428 
L 96.634552 121.423986 
L 97.720353 120.098312 
L 98.806154 132.152692 
L 99.891955 127.52825 
L 100.977756 124.229481 
L 102.063557 125.955939 
L 103.149358 128.853923 
L 104.23516 125.647643 
L 105.320961 117.662773 
L 106.406762 119.111764 
L 107.492563 116.830373 
L 108.578364 118.834298 
L 109.664165 118.710979 
L 110.749967 114.980596 
L 111.835768 127.034976 
L 112.921569 114.548981 
L 114.00737 118.001898 
L 115.093171 133.015921 
L 116.178972 116.707054 
L 117.264773 116.27544 
L 118.350575 111.126894 
L 120.522177 126.356724 
L 121.607978 112.23676 
L 122.693779 144.731176 
L 123.77958 111.157723 
L 124.865382 134.834869 
L 125.951183 120.745734 
L 127.036984 112.23676 
L 128.122785 112.20593 
L 129.208586 138.75023 
L 130.294387 113.8399 
L 131.380189 117.693602 
L 132.46599 116.24461 
L 133.551791 119.111764 
L 134.637592 120.992371 
L 135.723393 112.884182 
L 136.809194 126.264236 
L 137.894995 115.720507 
L 138.980797 121.454815 
L 140.066598 120.31412 
L 141.152399 125.92511 
L 142.2382 116.676225 
L 143.324001 129.162219 
L 144.409802 133.015921 
L 145.495604 118.310194 
L 146.581405 118.464343 
L 147.667206 130.73453 
L 148.753007 110.448642 
L 149.838808 107.889784 
L 150.924609 117.508624 
L 152.01041 121.208178 
L 153.096212 127.281613 
L 154.182013 116.213781 
L 155.267814 116.460417 
L 156.353615 118.341024 
L 157.439416 111.835975 
L 158.525217 120.745734 
L 159.611019 122.872978 
L 160.69682 128.114012 
L 161.782621 137.732853 
L 162.868422 107.057384 
L 163.954223 122.318045 
L 165.040024 119.820846 
L 166.125825 113.192478 
L 167.211627 126.942487 
L 168.297428 116.707054 
L 169.383229 125.308517 
L 170.46903 127.990694 
L 171.554831 128.114012 
L 172.640632 114.055707 
L 173.726434 118.186876 
L 174.812235 119.759186 
L 175.898036 119.111764 
L 176.983837 118.741809 
L 178.069638 122.965467 
L 179.155439 116.892032 
L 180.24124 109.647072 
L 181.327042 115.103914 
L 182.412843 108.352228 
L 183.498644 118.186876 
L 184.584445 115.042255 
L 185.670246 119.019276 
L 186.756047 111.620168 
L 187.841849 119.666698 
L 188.92765 114.487322 
L 191.099252 118.402683 
L 192.185053 129.532175 
L 193.270854 109.523754 
L 194.356656 118.402683 
L 195.442457 116.552906 
L 196.528258 121.239008 
L 197.614059 121.208178 
L 198.69986 107.982273 
L 200.871462 124.106162 
L 201.957264 125.308517 
L 203.043065 131.936885 
L 204.128866 110.448642 
L 205.214667 118.834298 
L 206.300468 119.019276 
L 207.386269 109.523754 
L 208.472071 130.549552 
L 209.557872 110.63362 
L 210.643673 114.64147 
L 211.729474 122.965467 
L 212.815275 124.106162 
L 213.901076 115.658847 
L 214.986877 118.032728 
L 216.072679 109.03048 
L 217.15848 118.402683 
L 218.244281 121.978919 
L 219.330082 123.674548 
L 220.415883 126.418384 
L 221.501684 109.739561 
L 222.587486 119.235083 
L 223.673287 116.090462 
L 224.759088 123.027126 
L 225.844889 112.884182 
L 226.93069 108.660525 
L 228.016491 109.184628 
L 229.102292 116.367929 
L 230.188094 105.978348 
L 231.273895 114.888107 
L 232.359696 114.703129 
L 233.445497 118.618491 
L 234.531298 114.795618 
L 235.617099 58.593227 
L 236.702901 56.311836 
L 237.788702 57.298384 
L 238.874503 57.236724 
L 239.960304 56.712621 
L 241.046105 57.60668 
L 242.131906 58.315761 
L 243.217708 57.60668 
L 244.303509 57.421702 
L 245.38931 57.57585 
L 246.475111 56.465984 
L 247.560912 56.404325 
L 248.646713 58.593227 
L 249.732514 58.439079 
L 250.818316 59.055672 
L 251.904117 58.963183 
L 252.989918 57.483361 
L 254.075719 59.333138 
L 255.16152 60.227197 
L 256.247321 60.597153 
L 257.333123 60.165538 
L 258.418924 61.367893 
L 259.504725 61.707019 
L 260.590526 62.909374 
L 261.676327 61.768678 
L 262.762128 63.525966 
L 263.847929 64.265877 
L 264.933731 65.776528 
L 266.019532 64.974958 
L 268.191134 67.657135 
L 269.276935 68.982808 
L 270.362736 68.705342 
L 271.448538 70.339311 
L 272.534339 71.418348 
L 273.62014 66.917224 
L 274.705941 70.770926 
L 275.791742 68.181238 
L 276.877543 73.268125 
L 277.963344 74.285502 
L 279.049146 74.223843 
L 280.134947 73.083147 
L 281.220748 71.140881 
L 282.306549 75.30288 
L 283.39235 68.458705 
L 284.478151 72.990658 
L 285.563953 79.526537 
L 286.649754 73.329784 
L 287.735555 74.902095 
L 288.821356 74.686287 
L 289.907157 76.597723 
L 290.992958 72.928999 
L 292.07876 71.079222 
L 293.164561 76.690212 
L 294.250362 72.343236 
L 295.336163 73.884717 
L 296.421964 70.524289 
L 297.507765 74.254673 
L 298.593566 75.518687 
L 299.679368 74.316332 
L 300.765169 73.607251 
L 301.85097 74.43965 
L 302.936771 73.69974 
L 304.022572 72.620703 
L 305.108373 74.43965 
L 306.194175 80.143129 
L 307.279976 72.250748 
L 308.365777 75.148731 
L 309.451578 75.24122 
L 310.537379 75.025413 
L 311.62318 72.435725 
L 312.708981 74.43965 
L 313.794783 81.530462 
L 314.880584 76.936849 
L 315.966385 77.245145 
L 317.052186 62.508589 
L 318.137987 61.398723 
L 319.223788 60.720471 
L 320.30959 60.658812 
L 321.395391 59.579775 
L 322.481192 59.425627 
L 323.566993 58.778205 
L 324.652794 59.487286 
L 325.738595 58.932353 
L 326.824396 58.685716 
L 327.910198 58.839864 
L 328.995999 58.161613 
L 330.0818 58.254102 
L 331.167601 58.099954 
L 332.253402 58.40825 
L 333.339203 57.822487 
L 334.425005 58.37742 
L 335.510806 58.192442 
L 336.596607 57.884146 
L 338.768209 58.161613 
L 339.85401 57.699169 
L 340.939811 57.945806 
L 342.025613 57.945806 
L 343.111414 57.791657 
L 344.197215 57.421702 
L 345.283016 57.822487 
L 346.368817 57.205895 
L 347.454618 57.668339 
L 348.54042 57.020917 
L 351.797823 57.144236 
L 352.883624 56.80511 
L 356.141028 56.620132 
L 357.226829 56.77428 
L 358.31263 56.74345 
L 359.398431 57.514191 
L 360.484232 56.74345 
L 361.570033 57.144236 
L 362.655835 57.082576 
L 363.741636 56.00354 
L 364.827437 57.020917 
L 365.913238 56.990087 
L 368.08484 56.281006 
L 369.170642 56.496814 
L 370.256443 56.990087 
L 371.342244 56.74345 
L 373.513846 56.589302 
L 374.599647 56.219347 
L 375.685448 56.250177 
L 376.77125 57.175065 
L 377.857051 56.712621 
L 378.942852 56.80511 
L 380.028653 57.144236 
L 382.200255 56.589302 
L 383.286057 56.712621 
L 384.371858 57.144236 
L 385.457659 56.990087 
L 386.54346 56.712621 
L 387.629261 56.897599 
L 388.715062 56.281006 
L 389.800863 55.94188 
L 390.886665 56.620132 
L 391.972466 56.681791 
L 393.058267 56.897599 
L 394.144068 56.404325 
L 395.229869 56.496814 
L 396.31567 57.236724 
L 397.401472 57.144236 
L 398.487273 56.589302 
L 398.487273 56.589302 
" style="fill:none;stroke:#ff0000;stroke-linecap:square;stroke-width:1.5;"/>
   </g>
   <g id="patch_3">
    <path d="M 57.6 307.584 
L 57.6 41.472 
" style="fill:none;stroke:#000000;stroke-linecap:square;stroke-linejoin:miter;stroke-width:0.8;"/>
   </g>
   <g id="patch_4">
    <path d="M 414.72 307.584 
L 414.72 41.472 
" style="fill:none;stroke:#000000;stroke-linecap:square;stroke-linejoin:miter;stroke-width:0.8;"/>
   </g>
   <g id="patch_5">
    <path d="M 57.6 307.584 
L 414.72 307.584 
" style="fill:none;stroke:#000000;stroke-linecap:square;stroke-linejoin:miter;stroke-width:0.8;"/>
   </g>
   <g id="patch_6">
    <path d="M 57.6 41.472 
L 414.72 41.472 
" style="fill:none;stroke:#000000;stroke-linecap:square;stroke-linejoin:miter;stroke-width:0.8;"/>
   </g>
   <g id="text_19">
    <!-- val acc comparsion -->
    <g transform="translate(178.142812 35.472)scale(0.12 -0.12)">
     <defs>
      <path d="M 191 3500 
L 800 3500 
L 1894 563 
L 2988 3500 
L 3597 3500 
L 2284 0 
L 1503 0 
L 191 3500 
z
" id="DejaVuSans-76" transform="scale(0.015625)"/>
      <path d="M 603 4863 
L 1178 4863 
L 1178 0 
L 603 0 
L 603 4863 
z
" id="DejaVuSans-6c" transform="scale(0.015625)"/>
      <path id="DejaVuSans-20" transform="scale(0.015625)"/>
      <path d="M 3328 2828 
Q 3544 3216 3844 3400 
Q 4144 3584 4550 3584 
Q 5097 3584 5394 3201 
Q 5691 2819 5691 2113 
L 5691 0 
L 5113 0 
L 5113 2094 
Q 5113 2597 4934 2840 
Q 4756 3084 4391 3084 
Q 3944 3084 3684 2787 
Q 3425 2491 3425 1978 
L 3425 0 
L 2847 0 
L 2847 2094 
Q 2847 2600 2669 2842 
Q 2491 3084 2119 3084 
Q 1678 3084 1418 2786 
Q 1159 2488 1159 1978 
L 1159 0 
L 581 0 
L 581 3500 
L 1159 3500 
L 1159 2956 
Q 1356 3278 1631 3431 
Q 1906 3584 2284 3584 
Q 2666 3584 2933 3390 
Q 3200 3197 3328 2828 
z
" id="DejaVuSans-6d" transform="scale(0.015625)"/>
      <path d="M 2631 2963 
Q 2534 3019 2420 3045 
Q 2306 3072 2169 3072 
Q 1681 3072 1420 2755 
Q 1159 2438 1159 1844 
L 1159 0 
L 581 0 
L 581 3500 
L 1159 3500 
L 1159 2956 
Q 1341 3275 1631 3429 
Q 1922 3584 2338 3584 
Q 2397 3584 2469 3576 
Q 2541 3569 2628 3553 
L 2631 2963 
z
" id="DejaVuSans-72" transform="scale(0.015625)"/>
      <path d="M 2834 3397 
L 2834 2853 
Q 2591 2978 2328 3040 
Q 2066 3103 1784 3103 
Q 1356 3103 1142 2972 
Q 928 2841 928 2578 
Q 928 2378 1081 2264 
Q 1234 2150 1697 2047 
L 1894 2003 
Q 2506 1872 2764 1633 
Q 3022 1394 3022 966 
Q 3022 478 2636 193 
Q 2250 -91 1575 -91 
Q 1294 -91 989 -36 
Q 684 19 347 128 
L 347 722 
Q 666 556 975 473 
Q 1284 391 1588 391 
Q 1994 391 2212 530 
Q 2431 669 2431 922 
Q 2431 1156 2273 1281 
Q 2116 1406 1581 1522 
L 1381 1569 
Q 847 1681 609 1914 
Q 372 2147 372 2553 
Q 372 3047 722 3315 
Q 1072 3584 1716 3584 
Q 2034 3584 2315 3537 
Q 2597 3491 2834 3397 
z
" id="DejaVuSans-73" transform="scale(0.015625)"/>
      <path d="M 603 3500 
L 1178 3500 
L 1178 0 
L 603 0 
L 603 3500 
z
M 603 4863 
L 1178 4863 
L 1178 4134 
L 603 4134 
L 603 4863 
z
" id="DejaVuSans-69" transform="scale(0.015625)"/>
      <path d="M 3513 2113 
L 3513 0 
L 2938 0 
L 2938 2094 
Q 2938 2591 2744 2837 
Q 2550 3084 2163 3084 
Q 1697 3084 1428 2787 
Q 1159 2491 1159 1978 
L 1159 0 
L 581 0 
L 581 3500 
L 1159 3500 
L 1159 2956 
Q 1366 3272 1645 3428 
Q 1925 3584 2291 3584 
Q 2894 3584 3203 3211 
Q 3513 2838 3513 2113 
z
" id="DejaVuSans-6e" transform="scale(0.015625)"/>
     </defs>
     <use xlink:href="#DejaVuSans-76"/>
     <use x="59.179688" xlink:href="#DejaVuSans-61"/>
     <use x="120.458984" xlink:href="#DejaVuSans-6c"/>
     <use x="148.242188" xlink:href="#DejaVuSans-20"/>
     <use x="180.029297" xlink:href="#DejaVuSans-61"/>
     <use x="241.308594" xlink:href="#DejaVuSans-63"/>
     <use x="296.289062" xlink:href="#DejaVuSans-63"/>
     <use x="351.269531" xlink:href="#DejaVuSans-20"/>
     <use x="383.056641" xlink:href="#DejaVuSans-63"/>
     <use x="438.037109" xlink:href="#DejaVuSans-6f"/>
     <use x="499.21875" xlink:href="#DejaVuSans-6d"/>
     <use x="596.630859" xlink:href="#DejaVuSans-70"/>
     <use x="660.107422" xlink:href="#DejaVuSans-61"/>
     <use x="721.386719" xlink:href="#DejaVuSans-72"/>
     <use x="762.5" xlink:href="#DejaVuSans-73"/>
     <use x="814.599609" xlink:href="#DejaVuSans-69"/>
     <use x="842.382812" xlink:href="#DejaVuSans-6f"/>
     <use x="903.564453" xlink:href="#DejaVuSans-6e"/>
    </g>
   </g>
   <g id="legend_1">
    <g id="patch_7">
     <path d="M 64.6 79.106375 
L 160.085938 79.106375 
Q 162.085938 79.106375 162.085938 77.106375 
L 162.085938 48.472 
Q 162.085938 46.472 160.085938 46.472 
L 64.6 46.472 
Q 62.6 46.472 62.6 48.472 
L 62.6 77.106375 
Q 62.6 79.106375 64.6 79.106375 
z
" style="fill:#ffffff;opacity:0.8;stroke:#cccccc;stroke-linejoin:miter;"/>
    </g>
    <g id="line2d_19">
     <path d="M 66.6 54.570438 
L 86.6 54.570438 
" style="fill:none;stroke:#000000;stroke-linecap:square;stroke-width:1.5;"/>
    </g>
    <g id="line2d_20"/>
    <g id="text_20">
     <!-- res2net -->
     <g transform="translate(94.6 58.070438)scale(0.1 -0.1)">
      <defs>
       <path d="M 1172 4494 
L 1172 3500 
L 2356 3500 
L 2356 3053 
L 1172 3053 
L 1172 1153 
Q 1172 725 1289 603 
Q 1406 481 1766 481 
L 2356 481 
L 2356 0 
L 1766 0 
Q 1100 0 847 248 
Q 594 497 594 1153 
L 594 3053 
L 172 3053 
L 172 3500 
L 594 3500 
L 594 4494 
L 1172 4494 
z
" id="DejaVuSans-74" transform="scale(0.015625)"/>
      </defs>
      <use xlink:href="#DejaVuSans-72"/>
      <use x="38.863281" xlink:href="#DejaVuSans-65"/>
      <use x="100.386719" xlink:href="#DejaVuSans-73"/>
      <use x="152.486328" xlink:href="#DejaVuSans-32"/>
      <use x="216.109375" xlink:href="#DejaVuSans-6e"/>
      <use x="279.488281" xlink:href="#DejaVuSans-65"/>
      <use x="341.011719" xlink:href="#DejaVuSans-74"/>
     </g>
    </g>
    <g id="line2d_21">
     <path d="M 66.6 69.248563 
L 86.6 69.248563 
" style="fill:none;stroke:#ff0000;stroke-linecap:square;stroke-width:1.5;"/>
    </g>
    <g id="line2d_22"/>
    <g id="text_21">
     <!-- res2net_isda -->
     <g transform="translate(94.6 72.748563)scale(0.1 -0.1)">
      <defs>
       <path d="M 3263 -1063 
L 3263 -1509 
L -63 -1509 
L -63 -1063 
L 3263 -1063 
z
" id="DejaVuSans-5f" transform="scale(0.015625)"/>
       <path d="M 2906 2969 
L 2906 4863 
L 3481 4863 
L 3481 0 
L 2906 0 
L 2906 525 
Q 2725 213 2448 61 
Q 2172 -91 1784 -91 
Q 1150 -91 751 415 
Q 353 922 353 1747 
Q 353 2572 751 3078 
Q 1150 3584 1784 3584 
Q 2172 3584 2448 3432 
Q 2725 3281 2906 2969 
z
M 947 1747 
Q 947 1113 1208 752 
Q 1469 391 1925 391 
Q 2381 391 2643 752 
Q 2906 1113 2906 1747 
Q 2906 2381 2643 2742 
Q 2381 3103 1925 3103 
Q 1469 3103 1208 2742 
Q 947 2381 947 1747 
z
" id="DejaVuSans-64" transform="scale(0.015625)"/>
      </defs>
      <use xlink:href="#DejaVuSans-72"/>
      <use x="38.863281" xlink:href="#DejaVuSans-65"/>
      <use x="100.386719" xlink:href="#DejaVuSans-73"/>
      <use x="152.486328" xlink:href="#DejaVuSans-32"/>
      <use x="216.109375" xlink:href="#DejaVuSans-6e"/>
      <use x="279.488281" xlink:href="#DejaVuSans-65"/>
      <use x="341.011719" xlink:href="#DejaVuSans-74"/>
      <use x="380.220703" xlink:href="#DejaVuSans-5f"/>
      <use x="430.220703" xlink:href="#DejaVuSans-69"/>
      <use x="458.003906" xlink:href="#DejaVuSans-73"/>
      <use x="510.103516" xlink:href="#DejaVuSans-64"/>
      <use x="573.580078" xlink:href="#DejaVuSans-61"/>
     </g>
    </g>
   </g>
  </g>
 </g>
 <defs>
  <clipPath id="p1046fa3203">
   <rect height="266.112" width="357.12" x="57.6" y="41.472"/>
  </clipPath>
 </defs>
</svg>
